<svg width="208" height="178" viewBox="0 0 208 178" fill="none" xmlns="http://www.w3.org/2000/svg">
<path fill-rule="evenodd" clip-rule="evenodd" d="M29.4286 85.8418C26.6773 81.0765 28.31 74.9832 33.0753 72.232L136.614 12.4536C141.38 9.70242 147.473 11.3351 150.224 16.1004C152.959 20.8366 151.362 26.8846 146.664 29.6594L129.321 39.6727C124.556 42.4239 122.923 48.5172 125.674 53.2825C128.425 58.0477 134.519 59.6804 139.284 56.9292L156.606 46.9286L156.54 46.9665L53.0014 106.745L52.9596 106.769L52.9158 106.794L94.7043 82.667C99.4695 79.9158 101.102 73.8225 98.351 69.0573C95.5998 64.292 89.5065 62.6593 84.7412 65.4105L42.9351 89.5473C38.1855 92.216 32.16 90.5727 29.4286 85.8418ZM28.5544 120.86C23.7891 123.611 22.1564 129.704 24.9077 134.469C27.6423 139.206 33.6789 140.848 38.4312 138.165L73.0302 118.19C77.7955 115.438 83.8888 117.071 86.64 121.836C89.3912 126.602 87.7585 132.695 82.9933 135.446L81.5194 136.297C81.5314 136.29 81.5433 136.283 81.5552 136.276L127.531 109.732C122.772 112.45 116.706 110.813 113.963 106.061C111.212 101.296 112.845 95.2029 117.61 92.4517L179.512 56.7127C184.226 53.9435 185.831 47.8845 183.092 43.1413C180.341 38.3761 174.248 36.7434 169.483 39.4946L28.5544 120.86ZM67.175 144.579C62.4098 147.33 60.7771 153.424 63.5283 158.189C66.2795 162.954 72.3729 164.587 77.1381 161.836L167.735 109.53C172.5 106.778 174.133 100.685 171.382 95.9198C168.63 91.1545 162.537 89.5218 157.772 92.273L67.175 144.579Z" fill="#01B5E2" fill-opacity="0.1"/>
<path d="M55.027 88.6984L84.8248 118.496C86.5821 120.254 89.4314 120.254 91.1887 118.496L148.385 61.3C150.142 59.5426 150.142 56.6934 148.385 54.936L138.513 45.0643C136.756 43.307 133.907 43.307 132.149 45.0643L89.8977 87.3159C89.3119 87.9017 88.3621 87.9017 87.7763 87.3159L72.0929 71.6325C70.3355 69.8751 67.4863 69.8751 65.7289 71.6325L55.027 82.3344C53.2696 84.0918 53.2696 86.941 55.027 88.6984Z" fill="#01B5E2" stroke="white" stroke-width="3"/>
<circle cx="73.5" cy="28.1396" r="2.5" fill="#01B5E2"/>
<circle cx="150.5" cy="23.1396" r="2.5" fill="#001540"/>
<circle cx="32.5" cy="70.1396" r="2.5" fill="#001540"/>
<circle cx="46.5" cy="122.14" r="2.5" fill="#01B5E2"/>
<circle cx="104.5" cy="148.14" r="2.5" fill="#001540"/>
<circle cx="123.5" cy="110.14" r="2.5" fill="#00B3D2"/>
<circle cx="181.5" cy="107.14" r="2.5" fill="#01B5E2"/>
</svg>
