<svg width="179" height="138" viewBox="0 0 179 138" fill="none" xmlns="http://www.w3.org/2000/svg">
<path opacity="0.3" d="M175.159 31.2346C173.333 27.6879 170.939 24.464 168.072 21.6908L69.778 20.8721L150.707 11.2635C145.412 9.49172 139.871 8.56259 134.287 8.51005C126.497 3.19127 116.483 0 105.561 0C95.7609 0 86.6986 2.57483 79.3111 6.94366C73.0325 4.20919 65.8755 2.6586 58.2709 2.6586C36.4308 2.6586 18.2327 15.4458 14.1499 32.4042L175.159 31.2346Z" fill="#01B5E2"/>
<path opacity="0.3" d="M178.614 45.457C178.607 40.8103 177.561 36.224 175.55 32.0344L5.19403 47.1514C3.46489 49.7874 2.12094 52.6567 1.20288 55.6725L53.9572 62.3206L0 67.167C1.62333 86.3647 21.0907 101.523 44.8716 101.523C56.842 101.523 67.7185 97.6824 75.7783 91.4184C83.863 97.8009 94.844 101.726 106.944 101.726C124.895 101.726 140.39 93.0839 147.606 80.5912C162.082 76.7055 173.326 66.9532 177.175 54.7526L110.461 46.0055H178.614C178.614 45.8221 178.614 45.6404 178.614 45.457Z" fill="#01B5E2"/>
<path opacity="0.5" d="M79.0295 137.204C104.344 137.204 124.865 136.288 124.865 135.158C124.865 134.029 104.344 133.113 79.0295 133.113C53.715 133.113 33.1936 134.029 33.1936 135.158C33.1936 136.288 53.715 137.204 79.0295 137.204Z" fill="#01B5E2"/>
<path d="M106.234 131.56V132.797H69.6816V131.793C71.9105 130.967 73.845 129.498 75.2387 127.573C76.633 125.647 77.4243 123.351 77.5125 120.976C77.6013 118.6 76.9826 116.252 75.7361 114.228C74.4891 112.204 72.6699 110.595 70.5081 109.606H105.986C103.873 110.573 102.086 112.133 100.841 114.096C99.5968 116.058 98.9483 118.34 98.9749 120.664C99.0008 122.988 99.7007 125.254 100.989 127.188C102.278 129.123 104.099 130.641 106.234 131.56Z" fill="#C8CAD7"/>
<path opacity="0.1" d="M105.986 109.606C104.356 110.355 102.914 111.458 101.764 112.836C100.616 114.214 99.79 115.832 99.3472 117.571H77.1488C76.706 115.832 75.8801 114.215 74.731 112.837C73.5825 111.458 72.1406 110.355 70.5098 109.606H105.986Z" fill="black"/>
<path d="M27.8193 103.309V110.248C27.8193 114.079 30.6234 117.185 34.0835 117.185H141.634C145.094 117.185 147.899 114.079 147.899 110.248V103.309H27.8193Z" fill="#C8CAD7"/>
<path opacity="0.1" d="M106.234 131.561V132.797H69.6816V131.794C70.6835 131.421 71.6312 130.916 72.5 130.292H103.993C104.693 130.794 105.444 131.219 106.234 131.561Z" fill="black"/>
<path d="M116.812 130.678H59.1037C58.2745 130.678 57.6023 131.35 57.6023 132.18V132.839C57.6023 133.668 58.2745 134.341 59.1037 134.341H116.812C117.641 134.341 118.313 133.668 118.313 132.839V132.18C118.313 131.35 117.641 130.678 116.812 130.678Z" fill="#C8CAD7"/>
<path d="M147.899 27.2767C147.897 25.6169 147.236 24.0258 146.061 22.8531C144.886 21.6803 143.294 21.0218 141.634 21.0222H34.0882C32.4276 21.0205 30.8342 21.6785 29.6586 22.8514C28.483 24.0243 27.8214 25.6161 27.8193 27.2767V104.659H147.899V27.2767Z" fill="#474157"/>
<path d="M144.63 30.0709V96.5625C144.63 96.9679 144.551 97.3689 144.396 97.7429C144.241 98.1175 144.014 98.4574 143.727 98.7437C143.441 99.03 143.101 99.2574 142.727 99.4122C142.352 99.567 141.951 99.6465 141.546 99.6465H34.1849C33.7799 99.6465 33.3788 99.567 33.0046 99.4122C32.6303 99.2574 32.2903 99.03 32.0038 98.7437C31.7175 98.4574 31.4903 98.1175 31.3354 97.7429C31.1805 97.3689 31.1009 96.9679 31.1011 96.5625V30.0709C31.1011 29.253 31.426 28.4686 32.0043 27.8903C32.5826 27.3119 33.367 26.9871 34.1849 26.9871H141.538C141.944 26.986 142.345 27.065 142.721 27.2195C143.096 27.374 143.437 27.601 143.724 27.8875C144.011 28.1739 144.239 28.5142 144.395 28.8889C144.55 29.2636 144.63 29.6652 144.63 30.0709Z" fill="#F7F7F7"/>
<path d="M87.8608 25.446C88.6597 25.446 89.307 24.7985 89.307 23.9997C89.307 23.201 88.6597 22.5535 87.8608 22.5535C87.0619 22.5535 86.4146 23.201 86.4146 23.9997C86.4146 24.7985 87.0619 25.446 87.8608 25.446Z" fill="white"/>
<path d="M87.8607 114.103C89.8298 114.103 91.4265 112.506 91.4265 110.537C91.4265 108.567 89.8298 106.971 87.8607 106.971C85.8911 106.971 84.2949 108.567 84.2949 110.537C84.2949 112.506 85.8911 114.103 87.8607 114.103Z" fill="white"/>
<path d="M55.0904 28.53V99.6466H34.1849C33.7799 99.6471 33.3788 99.567 33.0046 99.4122C32.6303 99.2574 32.2903 99.0301 32.0038 98.7438C31.7175 98.4575 31.4903 98.1176 31.3354 97.743C31.1805 97.369 31.1009 96.9679 31.1011 96.5631V30.0711L31.2133 29.6523L31.5136 28.53H55.0904Z" fill="#01B5E2"/>
<path d="M144.63 30.0719H31.1011C31.1011 29.6671 31.1809 29.2661 31.3358 28.8921C31.4908 28.518 31.718 28.1782 32.0044 27.8919C32.2908 27.6057 32.6308 27.3787 33.0049 27.2239C33.3791 27.0691 33.78 26.9895 34.1849 26.9898H141.538C141.944 26.9885 142.345 27.0673 142.721 27.2216C143.096 27.376 143.437 27.6028 143.724 27.8892C144.011 28.1755 144.239 28.5157 144.395 28.8903C144.55 29.2648 144.63 29.6664 144.63 30.0719Z" fill="#C8CAD7"/>
<path d="M34.1847 29.3021C34.6107 29.3021 34.9561 28.9568 34.9561 28.5307C34.9561 28.1048 34.6107 27.7594 34.1847 27.7594C33.7587 27.7594 33.4133 28.1048 33.4133 28.5307C33.4133 28.9568 33.7587 29.3021 34.1847 29.3021Z" fill="#EDEDF4"/>
<path d="M36.4972 29.3021C36.9232 29.3021 37.2686 28.9568 37.2686 28.5307C37.2686 28.1048 36.9232 27.7594 36.4972 27.7594C36.0712 27.7594 35.7258 28.1048 35.7258 28.5307C35.7258 28.9568 36.0712 29.3021 36.4972 29.3021Z" fill="#EDEDF4"/>
<path d="M38.8099 29.3021C39.2359 29.3021 39.5813 28.9568 39.5813 28.5307C39.5813 28.1048 39.2359 27.7594 38.8099 27.7594C38.3839 27.7594 38.0386 28.1048 38.0386 28.5307C38.0386 28.9568 38.3839 29.3021 38.8099 29.3021Z" fill="#EDEDF4"/>
<path d="M51.1042 39.6632H35.0874V41.1379H51.1042V39.6632Z" fill="white"/>
<path d="M51.1042 34.2961H35.0874V35.7708H51.1042V34.2961Z" fill="white"/>
<path d="M51.1042 44.7465H35.0874V46.2212H51.1042V44.7465Z" fill="white"/>
<path d="M51.1042 49.8329H35.0874V51.3076H51.1042V49.8329Z" fill="white"/>
<path d="M51.1042 54.915H35.0874V56.3897H51.1042V54.915Z" fill="white"/>
<path d="M51.1042 60.0005H35.0874V61.4754H51.1042V60.0005Z" fill="white"/>
<path d="M51.1042 65.0853H35.0874V66.5597H51.1042V65.0853Z" fill="white"/>
<path d="M51.1042 70.168H35.0874V71.6429H51.1042V70.168Z" fill="white"/>
<path d="M58.2661 81.7483C55.8619 80.3633 54.9466 80.0207 54.9466 80.019L54.8973 79.9844C54.6348 79.7825 54.4264 79.5194 54.2906 79.2174C54.2906 79.1622 54.2906 79.107 54.2906 79.0594V79.0751C54.3301 78.3417 54.8502 77.6765 55.345 77.0946C55.7666 76.5983 56.1877 76.1025 56.6093 75.6073C56.7549 75.4568 56.8659 75.2771 56.9352 75.0795C56.9606 74.9762 56.9725 74.8701 56.9698 74.7634C56.9698 74.7191 56.9698 74.6763 56.9698 74.6335C56.9698 74.2639 56.9525 73.8942 56.94 73.5272C56.927 73.2035 56.8448 72.7971 56.5211 72.737C56.3533 72.7023 56.1319 72.7624 56.047 72.6185C56.0156 72.56 56.008 72.4913 56.0248 72.4274C56.0248 72.4274 56.0248 72.4366 56.0248 72.4415C56.0242 72.4355 56.0242 72.4301 56.0248 72.4241C56.087 72.1746 56.1271 71.9202 56.1449 71.6637C56.1503 71.5338 56.133 71.4033 56.0924 71.2799C55.9046 70.7441 55.2611 70.5243 54.6922 70.4231C54.1231 70.3219 53.4845 70.2348 53.1273 69.7909C53.0293 69.6426 52.9238 69.4997 52.8111 69.3623C52.6456 69.2167 52.4443 69.1171 52.2279 69.0749C51.5219 68.9 50.7779 68.965 50.113 69.2594C49.8379 69.3828 49.5613 69.5474 49.2594 69.5301C48.9575 69.5127 48.6777 69.293 48.3679 69.2405C47.8685 69.1555 47.3895 69.5236 47.1429 69.9582C46.9966 70.2164 46.9189 70.5076 46.9169 70.8042C46.9169 70.8199 46.9169 70.8372 46.9169 70.8529C46.9106 71.1717 47.0272 71.4807 47.2425 71.7162C47.4575 71.9403 47.7783 72.0934 47.8747 72.3879C47.9111 72.508 47.9032 72.6374 47.9348 72.7576C47.9348 72.7733 47.9443 72.7879 47.949 72.8036L47.9317 72.8241C47.4182 73.485 47.1401 74.298 47.1413 75.1347C47.1463 75.9472 47.4092 76.7374 47.8922 77.3907C48.3751 78.044 49.0531 78.5273 49.8284 78.7704C49.8284 78.8066 49.8284 78.8445 49.8284 78.884C49.8392 79.1211 49.7981 79.3582 49.708 79.5779C49.6179 79.7977 49.481 79.9952 49.3068 80.1565L45.8957 81.5253C45.8957 81.5253 43.8409 81.2818 43.1012 84.2836C42.9826 84.7815 42.94 85.2946 42.9747 85.8056C43.0016 86.2591 42.9384 87.0559 42.412 88.0864C41.5695 89.7367 41.7608 93.5222 43.4837 93.8968C45.1102 94.2508 45.7472 94.1035 45.8136 94.0862V94.1528C45.7867 94.864 45.529 100.99 44.5918 101.74C44.3309 101.944 44.3799 102.083 44.5918 102.176C44.5918 102.176 44.5918 102.215 44.5918 102.287C44.5633 102.735 44.4178 104.441 43.7903 105.413C43.0696 106.534 43.1517 113.014 43.1517 113.014L42.6554 116.838C42.6554 116.838 42.9605 119.199 42.6554 119.612C42.382 119.98 42.0232 128.718 41.941 130.611H41.9093C41.7593 130.62 41.6137 130.666 41.4853 130.744C41.3569 130.823 41.2496 130.931 41.1728 131.06C40.765 131.715 39.3582 132.921 39.3582 132.921C39.0531 133.355 37.9214 133.771 37.3239 133.967C37.2439 133.993 37.1667 134.026 37.0931 134.066C36.8694 134.188 36.6897 134.378 36.5794 134.607C36.5405 134.675 36.5158 134.75 36.5065 134.827C36.4973 134.904 36.5038 134.983 36.5257 135.058C36.6837 135.432 39.8561 135.69 40.6591 135.32C41.2913 135.026 43.7951 134.637 44.8352 134.485C45.0239 134.462 45.1994 134.376 45.3339 134.241C45.4684 134.107 45.5543 133.931 45.5781 133.742C45.588 133.677 45.5848 133.611 45.5684 133.547C45.5522 133.484 45.5232 133.423 45.4832 133.371C45.2841 133.125 45.1813 132.451 45.1355 132.012C45.2199 131.977 45.2987 131.93 45.3694 131.873C45.2841 130.51 45.4794 129.145 45.9432 127.861C46.7082 125.838 46.939 122.089 46.7477 119.651C46.7477 119.651 49.0824 109.603 50.9207 108.666C50.9491 108.701 51.8406 109.845 51.9544 113.389C52.0682 116.988 53.3691 119.349 53.3691 119.349C53.3691 119.349 52.7953 125.46 53.3691 127.747L52.6151 131.349C52.5837 131.323 52.5536 131.296 52.525 131.267C52.525 131.267 52.5472 131.368 52.5788 131.528L52.563 131.604L52.5946 131.612C52.6799 132.062 52.8064 132.848 52.7527 133.309C52.7226 133.573 52.6499 133.932 52.5946 134.286C52.5155 134.841 52.4934 135.38 52.7859 135.497C53.26 135.69 56.0784 135.954 56.5574 135.339C56.6645 135.213 56.7344 135.059 56.7592 134.896C56.7836 134.732 56.762 134.564 56.6965 134.413C56.6618 134.328 56.6147 134.248 56.5574 134.177C56.5574 134.177 55.8099 132.955 56.0215 132.094C56.041 132.01 56.0426 131.923 56.0275 131.838C56.0118 131.753 55.9793 131.673 55.9311 131.601C56.041 130.237 56.2602 128.885 56.5871 127.556C57.0613 125.752 58.0761 121.798 57.3335 119.196C57.3048 119.095 57.2734 118.994 57.2388 118.896C56.8096 117.476 56.6662 115.985 56.8166 114.509C56.54 113.25 56.54 111.945 56.8166 110.686C57.2718 108.589 57.5928 106.534 57.5928 106.534C57.5928 106.534 57.8455 103.76 57.6242 102.059L57.6101 101.95L57.7303 101.923C57.7303 101.923 57.0802 99.0371 56.8496 97.2001C56.7961 96.7654 56.7246 96.2171 56.6472 95.6304C56.8594 95.5941 57.0678 95.5417 57.2718 95.4724C59.3394 94.7595 59.9889 88.311 59.9889 88.311V86.2656C59.9889 86.2656 60.6779 83.1404 58.2661 81.7483ZM42.8656 131.538L42.7645 131.484L42.8656 131.538Z" fill="url(#paint0_linear_29_786)"/>
<path d="M57.0191 118.958C57.9148 121.536 56.861 125.72 56.3863 127.588C56.067 128.939 55.8559 130.314 55.7541 131.698C54.6635 131.882 53.5476 131.856 52.4665 131.622L53.2569 127.774C52.6973 125.495 53.2569 119.406 53.2569 119.406C53.2569 119.406 51.9923 117.05 51.8754 113.464C51.7647 109.934 50.8954 108.793 50.8669 108.757C49.0602 109.696 46.7872 119.705 46.7872 119.705C46.9738 122.134 46.7493 125.87 45.9969 127.889C45.5434 129.17 45.3526 130.529 45.4358 131.886C45.175 132.106 44.8114 132.143 44.4194 132.08C43.3524 131.908 42.0737 130.988 42.0737 130.988C42.0737 130.988 42.4847 120.082 42.7834 119.668C43.0822 119.254 42.7834 116.903 42.7834 116.903L43.2687 113.092C43.2687 113.092 43.1944 106.629 43.901 105.506C44.5142 104.536 44.6549 102.836 44.6834 102.39C44.6834 102.319 44.6834 102.279 44.6834 102.279L45.7645 100.985C45.7645 100.985 56.2267 100.194 57.0109 100.985C57.2036 101.178 57.327 101.617 57.3936 102.167C57.6085 103.861 57.3617 106.626 57.3617 106.626C57.3617 106.626 57.0456 108.681 56.6001 110.772C56.33 112.028 56.33 113.327 56.6001 114.583C56.454 116.055 56.5963 117.541 57.0191 118.958Z" fill="#65617D"/>
<path d="M56.3645 135.341C55.8979 135.958 53.1525 135.697 52.6846 135.499C52.3986 135.381 52.4206 134.845 52.4981 134.292C52.5471 133.939 52.6182 133.581 52.6467 133.32C52.7225 132.646 52.4238 131.282 52.4238 131.282C52.4238 131.282 53.0403 131.937 53.1888 131.282C53.2232 131.157 53.291 131.044 53.3848 130.955C53.4787 130.866 53.5951 130.804 53.7215 130.776C54.0418 130.679 54.3862 130.701 54.692 130.836C55.1775 131.046 55.9867 131.496 55.8411 132.101C55.636 132.959 56.3645 134.176 56.3645 134.176C56.4208 134.248 56.4668 134.327 56.5003 134.412C56.5658 134.564 56.588 134.732 56.5637 134.896C56.5398 135.06 56.4706 135.214 56.3645 135.341Z" fill="#A27772"/>
<path opacity="0.1" d="M56.3647 135.341C55.8981 135.957 53.1526 135.696 52.6847 135.499C52.3986 135.38 52.4208 134.844 52.4982 134.291C52.7922 134.429 53.2886 134.544 54.1293 134.467C54.3247 134.448 54.5212 134.442 54.7176 134.448C55.3119 134.476 55.9073 134.464 56.5005 134.413C56.5655 134.565 56.5877 134.732 56.5633 134.896C56.5395 135.06 56.4708 135.214 56.3647 135.341Z" fill="black"/>
<path opacity="0.1" d="M46.7875 119.706C46.974 122.134 46.7496 125.871 45.9972 127.889C45.5437 129.17 45.3529 130.53 45.436 131.887C45.1753 132.106 44.8117 132.144 44.4197 132.081C44.6457 130.5 45.6052 123.715 46.2216 118.351C46.9218 112.242 50.2002 108.039 50.2002 108.039L50.8545 108.759C49.0605 109.696 46.7875 119.706 46.7875 119.706Z" fill="black"/>
<path d="M55.2437 80.438L54.7874 82.6793L52.5537 86.4345L49.7986 85.2573C49.7986 85.2573 46.0525 81.3343 48.4061 80.7747C48.6882 80.714 48.9547 80.596 49.1885 80.4266C49.65 80.0775 49.7954 79.5714 49.7986 79.0751C49.78 78.5192 49.6499 77.9726 49.4161 77.4681L54.2353 75.9553C54.0361 76.588 53.9198 77.2446 53.8893 77.9071C53.853 79.2191 54.3398 79.8675 54.7398 80.1755C54.8886 80.2956 55.0602 80.3849 55.2437 80.438Z" fill="#FBBEBE"/>
<path opacity="0.1" d="M54.2354 75.9553C54.0361 76.588 53.9197 77.2446 53.8893 77.9071C53.4009 78.4868 52.7508 78.9073 52.0222 79.1157C51.2934 79.3235 50.5193 79.3095 49.7985 79.0751C49.7799 78.5192 49.6498 77.9726 49.416 77.4681L54.2354 75.9553Z" fill="black"/>
<path d="M54.7868 75.3395C54.7868 76.0935 54.5633 76.8302 54.1449 77.4569C53.7259 78.0832 53.1308 78.5719 52.4344 78.8604C51.738 79.1489 50.9717 79.2241 50.2325 79.0769C49.4933 78.9302 48.8142 78.567 48.2812 78.0344C47.7483 77.5013 47.3853 76.822 47.2383 76.0832C47.0912 75.3439 47.1667 74.5775 47.4551 73.8814C47.7435 73.1848 48.232 72.5894 48.8587 72.171C49.4855 71.7521 50.2223 71.5286 50.976 71.5286C51.4768 71.5275 51.9729 71.6249 52.4358 71.816C52.8988 72.007 53.3194 72.288 53.6735 72.6419C54.0277 72.9959 54.3084 73.417 54.4994 73.8798C54.6905 74.3426 54.7885 74.8389 54.7868 75.3395Z" fill="#FBBEBE"/>
<path opacity="0.1" d="M55.2437 80.4374L54.7874 82.6787L52.5537 86.4345L49.7986 85.2567C49.7986 85.2567 46.0525 81.3337 48.4061 80.7746C48.6882 80.714 48.9547 80.5954 49.1885 80.4266C48.7633 81.5946 50.5178 84.0243 50.5178 84.0243C50.7217 84.3247 51.1911 84.1363 51.1911 84.1363C52.3197 83.9658 54.4015 80.7156 54.7398 80.1754C54.8886 80.2956 55.0602 80.3849 55.2437 80.4374Z" fill="black"/>
<path opacity="0.1" d="M57.4011 102.17C56.7375 102.328 53.0671 103.132 51.6762 102.93C50.1445 102.706 47.165 102.557 47.165 102.557C47.165 102.557 45.2682 102.658 44.6865 102.399C44.6865 102.328 44.6865 102.288 44.6865 102.288L45.7677 100.994C45.7677 100.994 56.2298 100.204 57.0141 100.994C57.2198 101.181 57.3302 101.618 57.4011 102.17Z" fill="black"/>
<path d="M50.5177 84.1372C50.5177 84.1372 48.5467 81.4076 49.2896 80.3435L45.9591 81.7097C45.9591 81.7097 43.9549 81.4661 43.2325 84.4565C43.1167 84.9539 43.0747 85.466 43.1076 85.9753C43.1345 86.4262 43.0729 87.2196 42.5592 88.2469C41.7372 89.8907 41.9269 93.6654 43.6055 94.0383C45.2842 94.4113 45.8849 94.2245 45.8849 94.2245C45.8849 94.2245 45.6604 101.062 44.6899 101.846C43.7194 102.63 47.1668 102.444 47.1668 102.444C47.1668 102.444 50.1447 102.602 51.6764 102.819C53.208 103.035 57.5045 102.028 57.5045 102.028C57.5045 102.028 56.8718 99.1516 56.6445 97.3211C56.4166 95.4905 55.8981 91.593 55.8981 91.593L59.709 86.4305C59.709 86.4305 60.3813 83.3107 58.0274 81.9289C55.674 80.5476 54.7869 80.2061 54.7869 80.2061C54.7869 80.2061 52.4161 84.0582 51.1895 84.2449C51.1895 84.2481 50.7217 84.4376 50.5177 84.1372Z" fill="#FF9800"/>
<path opacity="0.1" d="M46.1458 85.2206C46.1458 85.2206 46.1095 86.4536 46.3339 86.9385C46.5583 87.424 47.3787 90.1141 47.3787 90.1141H45.512C45.512 90.1141 46.5204 89.0316 46.4461 88.5082C46.3718 87.9853 46.1458 85.2206 46.1458 85.2206Z" fill="black"/>
<path d="M51.6765 94.5208C51.6765 94.5208 47.551 93.5125 47.1669 92.654C46.7828 91.7956 45.7222 89.8704 45.7222 89.8704L46.1568 89.2842L48.1643 90.8646C48.1643 90.8646 50.5558 92.7612 51.6765 92.9577C52.7972 93.1536 51.6765 94.5208 51.6765 94.5208Z" fill="#FBBEBE"/>
<path opacity="0.05" d="M51.6765 94.5208C51.6765 94.5208 47.551 93.5125 47.1669 92.654C46.7828 91.7956 45.7222 89.8704 45.7222 89.8704L46.1568 89.2842L48.1643 90.8646C48.1643 90.8646 50.5558 92.7612 51.6765 92.9577C52.7972 93.1536 51.6765 94.5208 51.6765 94.5208Z" fill="black"/>
<path d="M55.2437 89.6676V91.9057H54.8838C53.106 91.9057 51.3576 92.3582 49.8033 93.2204L49.13 93.5938L48.9482 93.6951L47.7896 91.0868L48.8739 90.1147H48.9292C49.1948 90.1401 50.3408 90.2348 50.826 90.0719C51.3113 89.909 51.8613 89.4175 53.2191 89.7655C53.8893 89.936 54.46 90.6868 55.116 90.4529L55.2437 89.6676Z" fill="#FBBEBE"/>
<path opacity="0.1" d="M58.8495 85.5945L59.597 86.4351V88.4713C59.597 88.4713 58.9648 94.8981 56.9449 95.6077C54.9249 96.3173 51.3256 95.1969 51.3256 95.1969C51.3256 95.1969 50.3946 92.731 50.8292 92.581C51.2639 92.4306 54.6765 91.5315 54.6765 91.5315C54.6765 91.5315 54.6278 87.7617 55.3752 86.6408C55.3752 86.6408 54.8897 83.1286 56.5703 83.0544C58.2504 82.9803 58.8495 85.5945 58.8495 85.5945Z" fill="black"/>
<path d="M58.9581 85.5945L59.7056 86.4351V88.4713C59.7056 88.4713 59.0734 94.8981 57.0518 95.6077C55.0303 96.3173 51.4342 95.1969 51.4342 95.1969C51.4342 95.1969 50.5032 92.731 50.9379 92.581C51.3726 92.4306 54.7834 91.5315 54.7834 91.5315C54.7834 91.5315 54.7364 87.7617 55.4838 86.6408C55.4838 86.6408 54.9972 83.1286 56.6789 83.0544C58.3606 82.9803 58.9581 85.5945 58.9581 85.5945Z" fill="#FF9800"/>
<path opacity="0.1" d="M53.7421 76.9573C53.7754 76.7115 53.746 76.4615 53.6568 76.2304C53.61 76.1156 53.5265 76.0204 53.4195 75.9587C53.3125 75.897 53.188 75.8721 53.0656 75.8888C52.7495 75.963 52.6072 76.3787 52.2942 76.4783C52.0303 76.5622 51.741 76.3754 51.6146 76.1292C51.5087 75.8721 51.4643 75.5939 51.4849 75.3167C51.4849 75.0006 51.4849 74.6921 51.4849 74.3793C51.4849 74.0394 51.4739 73.6729 51.2637 73.4056C51.0028 73.0738 50.3911 72.9314 49.9833 72.9428C49.7111 72.9455 49.45 73.0505 49.2515 73.2367C49.1518 73.3368 49.0309 73.4137 48.8977 73.4613C48.7645 73.5089 48.6224 73.5263 48.4817 73.5116C48.3576 73.4927 48.2415 73.4386 48.1467 73.3563C48.0519 73.2746 47.9823 73.1669 47.9458 73.0467C47.9451 73.0429 47.9451 73.0386 47.9458 73.0343C48.2634 72.6143 48.6646 72.2646 49.1239 72.0075C49.5833 71.7504 50.091 71.5913 50.615 71.5404C51.139 71.489 51.6678 71.5469 52.1683 71.7104C52.6687 71.8738 53.1299 72.139 53.5227 72.4898C53.9155 72.84 54.2315 73.2681 54.4507 73.7471C54.6694 74.2256 54.7874 74.7446 54.7955 75.2707C54.8042 75.7974 54.704 76.3197 54.5005 76.8052C54.297 77.2907 53.9952 77.7291 53.6141 78.0923C53.6772 77.7167 53.7199 77.3378 53.7421 76.9573Z" fill="black"/>
<path d="M48.4803 73.3996C48.3562 73.3801 48.24 73.3265 48.1449 73.2442C48.0499 73.1619 47.9799 73.0548 47.9429 72.9346C47.9128 72.8145 47.9207 72.6851 47.8844 72.5666C47.7974 72.2727 47.4845 72.1195 47.2743 71.8965C46.8538 71.4505 46.8807 70.7155 47.1778 70.178C47.4196 69.745 47.886 69.3802 48.3744 69.4636C48.6763 69.5177 48.9371 69.7326 49.2437 69.7515C49.5504 69.7704 49.808 69.6059 50.0768 69.4825C50.7242 69.1897 51.4521 69.1247 52.1411 69.2996C52.3531 69.3418 52.5498 69.4403 52.7101 69.5853C52.8189 69.7223 52.9202 69.8646 53.0136 70.0124C53.3614 70.4562 53.9857 70.5434 54.5405 70.6446C55.0953 70.7458 55.7243 70.9607 55.9061 71.4998C56.0279 71.8537 55.9061 72.238 55.8412 72.6061C55.8174 72.6813 55.8222 72.7636 55.8558 72.835C55.9424 72.979 56.1589 72.9189 56.3299 72.9525C56.646 73.0185 56.725 73.4266 56.7359 73.7427C56.751 74.1091 56.7608 74.4783 56.7662 74.849C56.7754 74.986 56.7646 75.124 56.7342 75.2582C56.666 75.4498 56.5583 75.6247 56.4181 75.7719L55.1841 77.2549C54.6369 77.912 54.0568 78.6773 54.166 79.526C53.9067 79.6413 53.6 79.4183 53.5146 79.1466C53.4293 78.8749 53.4973 78.5837 53.5558 78.306C53.6552 77.8248 53.7202 77.3372 53.7502 76.8468C53.7835 76.6005 53.7542 76.3499 53.6648 76.1183C53.6177 76.0035 53.534 75.9083 53.4267 75.8466C53.3194 75.7843 53.1947 75.76 53.0721 75.7767C52.756 75.8509 52.6152 76.2666 52.3023 76.3662C52.0383 76.4517 51.7491 76.2639 51.6226 76.0171C51.5175 75.76 51.4731 75.4818 51.493 75.2046V74.2672C51.493 73.9273 51.4819 73.5608 51.2717 73.2935C51.0125 72.9617 50.3992 72.8193 49.9914 72.8307C49.7192 72.8334 49.458 72.9384 49.2595 73.1246C49.1588 73.2264 49.0364 73.3038 48.9014 73.3514C48.7665 73.399 48.6225 73.4153 48.4803 73.3996Z" fill="#7C5C5C"/>
<path opacity="0.1" d="M49.3403 85.1281L50.5116 89.9333C50.5116 89.9333 51.4331 89.9284 49.3403 85.1281Z" fill="black"/>
<path opacity="0.1" d="M53.3391 84.3236C53.3391 84.3236 51.8059 86.8334 52.405 89.4271L52.6895 89.4477C52.6895 89.4477 52.1805 88.2466 53.3391 84.3236Z" fill="black"/>
<path opacity="0.1" d="M54.3093 98.5224C54.3093 98.5224 56.1907 97.8994 56.3282 99.344C56.3282 99.344 55.9726 98.353 54.3093 98.5224Z" fill="black"/>
<path opacity="0.1" d="M48.8738 90.2267C48.8738 90.2267 48.5008 92.8426 49.1726 93.8888C48.1186 94.2601 46.9998 94.4127 45.8848 94.3364L45.6604 90.2267H48.8738Z" fill="black"/>
<path opacity="0.1" d="M49.13 93.5938L48.9482 93.6945L47.7896 91.0867L48.8739 90.1146H48.9292C48.9118 90.2413 48.6099 92.4869 49.13 93.5938Z" fill="black"/>
<path d="M48.8739 90.1146C48.8739 90.1146 48.5008 92.7305 49.1726 93.7768C48.1186 94.1481 46.9998 94.3007 45.8849 94.2244L44.5776 90.1146H48.8739Z" fill="#FF9800"/>
<path d="M45.6414 133.751C45.6199 133.937 45.5369 134.111 45.4055 134.245C45.2741 134.379 45.1019 134.465 44.9159 134.49C43.9027 134.649 41.4574 135.028 40.8409 135.322C40.0507 135.696 36.9557 135.434 36.8056 135.061C36.7845 134.986 36.7784 134.908 36.7876 134.83C36.7969 134.753 36.8212 134.678 36.8593 134.611C36.9316 134.462 37.0331 134.329 37.1577 134.22C37.2824 134.112 37.4276 134.029 37.5848 133.978C38.1696 133.782 39.2729 133.37 39.5701 132.937C39.5701 132.937 40.9453 131.732 41.3373 131.083C41.4109 130.954 41.5151 130.846 41.6406 130.768C41.7661 130.69 41.909 130.644 42.0565 130.635C42.3837 130.619 42.7472 130.786 42.8974 131.501C42.8974 131.501 44.6899 132.524 45.1751 131.628C45.1751 131.628 45.2494 133.005 45.5466 133.383C45.5859 133.435 45.6145 133.494 45.6308 133.557C45.6471 133.62 45.6507 133.686 45.6414 133.751Z" fill="#A27772"/>
<path opacity="0.1" d="M45.6414 133.751C45.6199 133.937 45.5369 134.111 45.4055 134.245C45.2741 134.379 45.1019 134.465 44.9159 134.491C43.9027 134.649 41.4574 135.028 40.8409 135.322C40.0507 135.697 36.9557 135.434 36.8056 135.061C36.7845 134.986 36.7784 134.908 36.7876 134.831C36.7969 134.753 36.8212 134.679 36.8593 134.61C36.9658 134.384 37.1411 134.195 37.3604 134.073C37.8662 134.408 38.9885 134.737 41.4574 134.352C43.8126 133.983 44.9775 133.623 45.5466 133.378C45.5865 133.43 45.6155 133.491 45.6317 133.554C45.648 133.619 45.6513 133.685 45.6414 133.751Z" fill="black"/>
<g opacity="0.1">
<path opacity="0.1" d="M55.8365 72.6569C55.8376 72.6504 55.8376 72.6439 55.8365 72.638C55.9106 72.3614 55.9496 72.0767 55.9523 71.7909C55.9285 72.0193 55.8895 72.2466 55.8365 72.4702C55.8224 72.5319 55.8224 72.5952 55.8365 72.6569Z" fill="black"/>
<path opacity="0.1" d="M53.6571 76.1533C53.7157 76.2875 53.7469 76.4331 53.7488 76.5798C53.7658 76.3774 53.7344 76.1733 53.6571 75.9855C53.61 75.8708 53.5264 75.775 53.4191 75.7133C53.3119 75.651 53.1872 75.6261 53.0643 75.6424C52.7482 75.7171 52.6075 76.1338 52.2946 76.2334C52.0306 76.3173 51.7414 76.1295 51.6149 75.8827C51.5083 75.6261 51.4639 75.3474 51.4853 75.0703C51.4853 74.7542 51.4853 74.4462 51.4853 74.1344C51.4853 73.7945 51.4742 73.4281 51.264 73.1607C51.0032 72.8273 50.3915 72.6866 49.9821 72.6963C49.7101 72.699 49.4493 72.8046 49.2518 72.9918C49.152 73.092 49.0311 73.1683 48.8979 73.2159C48.7647 73.263 48.6226 73.2798 48.482 73.2652C48.3576 73.2468 48.2409 73.1932 48.1458 73.1109C48.0505 73.0287 47.9808 72.9209 47.9446 72.8008C47.913 72.6806 47.9225 72.5523 47.8862 72.4322C47.7992 72.1383 47.4862 71.9867 47.276 71.7637C47.0799 71.5462 46.9678 71.2658 46.9599 70.9735C46.9449 71.1462 46.9652 71.3199 47.0195 71.485C47.0739 71.6495 47.1611 71.8011 47.276 71.931C47.4862 72.154 47.7992 72.3072 47.8862 72.6016C47.9225 72.7201 47.913 72.8495 47.9446 72.9697C47.9815 73.0898 48.0515 73.197 48.1465 73.2793C48.2416 73.3615 48.3579 73.4151 48.482 73.4346C48.6228 73.4487 48.7649 73.4319 48.8981 73.3843C49.0313 73.3366 49.1522 73.2598 49.2518 73.1596C49.4502 72.9751 49.7098 72.8711 49.9805 72.8668C50.3899 72.8544 51.0016 73 51.2624 73.3318C51.4726 73.5986 51.4821 73.9639 51.4837 74.3055C51.4837 74.6216 51.4837 74.9295 51.4837 75.2413C51.4622 75.519 51.5066 75.7977 51.6133 76.0548C51.7398 76.3016 52.029 76.4883 52.293 76.4045C52.6092 76.3049 52.7435 75.8892 53.0628 75.8134C53.1854 75.7972 53.31 75.8215 53.4174 75.8827C53.5247 75.9438 53.609 76.0391 53.6571 76.1533Z" fill="black"/>
<path opacity="0.1" d="M56.7284 75.1233C56.6596 75.3154 56.5519 75.4908 56.4123 75.6386C55.9988 76.1316 55.5874 76.6253 55.1777 77.12C54.6592 77.744 54.1091 78.4666 54.1488 79.2628C54.1866 78.5326 54.6954 77.8691 55.1777 77.2888L56.4123 75.8064C56.5519 75.6586 56.6596 75.4838 56.7284 75.2927C56.7587 75.1579 56.7695 75.0194 56.7598 74.8813C56.7592 74.9631 56.7484 75.0443 56.7284 75.1233Z" fill="black"/>
<path opacity="0.1" d="M53.5068 79.0144C53.4864 78.9489 53.4736 78.8818 53.4688 78.8136C53.4584 78.9375 53.4713 79.0626 53.5068 79.1822C53.5905 79.4539 53.8987 79.6769 54.1581 79.5611C54.1581 79.5059 54.1467 79.4507 54.1451 79.403C53.8893 79.5059 53.5842 79.2802 53.5068 79.0144Z" fill="black"/>
</g>
<path opacity="0.1" d="M41.0972 131.416C41.0972 131.416 41.4876 132.102 42.9038 131.497L41.0972 131.416Z" fill="black"/>
<path opacity="0.1" d="M53.0547 131.581C53.0547 131.581 54.2763 133.018 55.8145 132.055L53.0547 131.581Z" fill="black"/>
<path opacity="0.1" d="M56.6083 114.586C56.6083 114.586 55.745 115.125 55.7168 115.433C55.6881 115.741 56.1623 115.208 56.1623 115.208L56.6083 114.586Z" fill="black"/>
<path opacity="0.1" d="M56.948 118.718C56.6482 118.968 56.2753 119.113 55.8856 119.132C55.2409 119.16 55.2945 120.001 55.7167 119.748C56.1383 119.495 56.948 118.718 56.948 118.718Z" fill="black"/>
<path opacity="0.1" d="M57.112 119.257C57.112 119.257 56.698 121.289 56.3613 120.897L57.112 119.257Z" fill="black"/>
<g opacity="0.5">
<path d="M145 30H55V34H145V30Z" fill="#01B5E2"/>
<path opacity="0.5" d="M113 52H64V88H113V52Z" fill="#01B5E2"/>
<path opacity="0.5" d="M135 52H123V54H135V52Z" fill="#01B5E2"/>
<path opacity="0.5" d="M113 45H64V47H113V45Z" fill="#01B5E2"/>
<path opacity="0.5" d="M135 60H123V62H135V60Z" fill="#01B5E2"/>
<path opacity="0.5" d="M135 68H123V70H135V68Z" fill="#01B5E2"/>
<path opacity="0.5" d="M135 76H123V78H135V76Z" fill="#01B5E2"/>
<path opacity="0.5" d="M135 84H123V87H135V84Z" fill="#01B5E2"/>
</g>
<path opacity="0.3" d="M147.221 129.626C151.406 129.626 154.799 129.021 154.799 128.273C154.799 127.526 151.406 126.92 147.221 126.92C143.036 126.92 139.644 127.526 139.644 128.273C139.644 129.021 143.036 129.626 147.221 129.626Z" fill="#01B5E2"/>
<path d="M141.277 135.427C144.788 135.427 147.633 134.946 147.633 134.352C147.633 133.759 144.788 133.277 141.277 133.277C137.767 133.277 134.922 133.759 134.922 134.352C134.922 134.946 137.767 135.427 141.277 135.427Z" fill="#01B5E2"/>
<path d="M143.904 132.596C144.195 132.359 144.406 132.04 144.51 131.681C144.589 131.317 144.434 130.882 144.088 130.75C143.699 130.601 143.284 130.87 142.967 131.143C142.651 131.417 142.293 131.725 141.88 131.668C142.092 131.476 142.25 131.231 142.34 130.96C142.43 130.688 142.447 130.398 142.392 130.118C142.374 130.001 142.325 129.892 142.25 129.801C142.033 129.57 141.643 129.668 141.383 129.85C140.562 130.429 140.332 131.545 140.328 132.55C140.246 132.188 140.315 131.81 140.313 131.444C140.312 131.077 140.209 130.653 139.896 130.459C139.702 130.355 139.484 130.304 139.264 130.31C138.894 130.296 138.482 130.332 138.23 130.603C137.914 130.939 137.998 131.502 138.269 131.867C138.542 132.232 138.959 132.468 139.339 132.724C139.646 132.907 139.907 133.156 140.105 133.452C140.127 133.494 140.146 133.538 140.16 133.584H142.477C142.995 133.32 143.475 132.987 143.904 132.596Z" fill="#01B5E2"/>
<path opacity="0.1" d="M18.0239 136.445C20.3255 136.445 22.1913 136.13 22.1913 135.741C22.1913 135.352 20.3255 135.037 18.0239 135.037C15.7223 135.037 13.8564 135.352 13.8564 135.741C13.8564 136.13 15.7223 136.445 18.0239 136.445Z" fill="#6C63FF"/>
<path d="M12.4192 132.083C12.4192 132.083 14.7962 132.009 15.5142 131.499C16.2322 130.991 19.171 130.379 19.3489 131.198C19.5269 132.016 22.9205 135.266 20.2372 135.288C17.5538 135.309 14.0023 134.87 13.2873 134.435C12.5724 134 12.4192 132.083 12.4192 132.083Z" fill="#4DCBEB"/>
<path opacity="0.2" d="M20.2787 135.003C17.5954 135.025 14.0423 134.585 13.3273 134.151C12.7842 133.818 12.566 132.627 12.4948 132.08H12.4143C12.4143 132.08 12.5691 133.996 13.2809 134.432C13.9928 134.868 17.5474 135.306 20.2308 135.284C21.0045 135.284 21.2723 135.003 21.2583 134.594C21.15 134.845 20.8544 134.998 20.2787 135.003Z" fill="black"/>
<defs>
<linearGradient id="paint0_linear_29_786" x1="48.2889" y1="135.726" x2="48.2889" y2="68.9737" gradientUnits="userSpaceOnUse">
<stop stop-color="#808080" stop-opacity="0.25"/>
<stop offset="0.54" stop-color="#808080" stop-opacity="0.12"/>
<stop offset="1" stop-color="#808080" stop-opacity="0.1"/>
</linearGradient>
</defs>
</svg>
