<svg width="346" height="313" viewBox="0 0 346 313" fill="none" xmlns="http://www.w3.org/2000/svg">
<path opacity="0.3" d="M339 60.726C335.463 53.8306 330.824 47.5627 325.269 42.1711L134.795 40.5793L291.619 21.8984C281.358 18.4537 270.621 16.6473 259.8 16.5452C244.704 6.20444 225.3 0 204.135 0C185.144 0 167.584 5.00596 153.268 13.4998C141.102 8.18346 127.233 5.16883 112.497 5.16883C70.1756 5.16883 34.9117 30.0295 27 63L339 60.726Z" fill="white"/>
<path opacity="0.3" d="M346 88.0011C345.986 78.9998 343.96 70.1157 340.066 62L10.0616 91.2835C6.71197 96.3896 4.10856 101.948 2.33014 107.79L104.523 120.668L0 130.056C3.14462 167.244 40.8556 196.608 86.9225 196.608C110.111 196.608 131.18 189.168 146.793 177.034C162.454 189.398 183.726 197 207.165 197C241.94 197 271.956 180.26 285.933 156.06C313.975 148.533 335.757 129.642 343.213 106.008L213.978 89.0636H346C346 88.7084 346 88.3563 346 88.0011Z" fill="white"/>
<path d="M265.966 41.5121H115.271C110.162 41.5187 105.264 43.8202 101.651 47.9119C98.0379 52.0035 96.0057 57.5511 96 63.3376V263.735C96.0057 269.521 98.0379 275.069 101.651 279.16C105.264 283.252 110.162 285.553 115.271 285.56H265.966C271.075 285.553 275.973 283.252 279.586 279.16C283.199 275.069 285.231 269.521 285.237 263.735V63.3376C285.231 57.5511 283.199 52.0035 279.586 47.9119C275.973 43.8202 271.075 41.5187 265.966 41.5121Z" fill="#E6E6E6"/>
<path d="M265.921 47.9134H115.316C111.68 47.918 108.194 49.5553 105.623 52.4661C103.051 55.3768 101.605 59.3234 101.601 63.4399V263.632C101.605 267.749 103.051 271.695 105.623 274.606C108.194 277.517 111.68 279.154 115.316 279.159H265.921C269.557 279.154 273.043 277.517 275.614 274.606C278.186 271.695 279.632 267.749 279.636 263.632V63.4399C279.632 59.3234 278.186 55.3769 275.614 52.4661C273.043 49.5553 269.557 47.918 265.921 47.9134Z" fill="white"/>
<path d="M126.046 87.9972C123.437 91.801 121.916 96.245 121.648 100.85C121.38 105.455 122.374 110.045 124.523 114.126C126.673 118.207 129.896 121.624 133.845 124.007C137.794 126.391 145.81 129.129 154.411 126.529L146.932 105.541L126.046 87.9972Z" fill="#01B5E2"/>
<path d="M146.932 76.9973C142.818 76.9947 138.767 77.9951 135.127 79.9118C131.488 81.8286 128.371 84.6038 126.046 87.9971L146.932 105.541V76.9973Z" fill="#CCCCCC"/>
<path d="M146.932 127.929H146.653V76.7189H146.932C153.723 76.7189 160.235 79.4166 165.037 84.2185C169.839 89.0203 172.537 95.5331 172.537 102.324C172.537 109.115 169.839 115.628 165.037 120.429C160.235 125.231 153.723 127.929 146.932 127.929ZM147.21 77.2771V127.371C153.805 127.298 160.104 124.626 164.742 119.937C169.379 115.248 171.98 108.919 171.98 102.324C171.98 95.7289 169.379 89.4 164.742 84.7107C160.104 80.0215 153.805 77.3504 147.21 77.2771Z" fill="#3F3D56"/>
<path d="M243.152 151.485H167.016C166.595 151.485 166.178 151.402 165.788 151.242C165.399 151.081 165.045 150.845 164.747 150.547C164.449 150.249 164.212 149.895 164.051 149.506C163.889 149.117 163.806 148.7 163.806 148.278C163.806 147.857 163.889 147.44 164.051 147.05C164.212 146.661 164.449 146.308 164.747 146.01C165.045 145.712 165.399 145.476 165.788 145.315C166.178 145.154 166.595 145.072 167.016 145.072H243.152C244.002 145.072 244.818 145.41 245.419 146.011C246.02 146.612 246.358 147.428 246.358 148.278C246.358 149.129 246.02 149.944 245.419 150.545C244.818 151.147 244.002 151.485 243.152 151.485Z" fill="#E6E6E6"/>
<path d="M256.378 162.306H167.016C166.595 162.306 166.178 162.224 165.788 162.063C165.399 161.902 165.045 161.666 164.747 161.368C164.449 161.07 164.212 160.717 164.051 160.327C163.889 159.938 163.806 159.521 163.806 159.099C163.806 158.678 163.889 158.261 164.051 157.872C164.212 157.482 164.449 157.129 164.747 156.831C165.045 156.533 165.399 156.297 165.788 156.136C166.178 155.975 166.595 155.893 167.016 155.893H256.378C256.799 155.893 257.216 155.975 257.606 156.136C257.995 156.297 258.349 156.533 258.647 156.831C258.945 157.129 259.182 157.482 259.343 157.872C259.505 158.261 259.588 158.678 259.588 159.099C259.588 159.521 259.505 159.938 259.343 160.327C259.182 160.717 258.945 161.07 258.647 161.368C258.349 161.666 257.995 161.902 257.606 162.063C257.216 162.224 256.799 162.306 256.378 162.306Z" fill="#E6E6E6"/>
<path d="M149.962 167.218H123.018C122.61 167.218 122.219 167.056 121.931 166.767C121.643 166.479 121.481 166.088 121.48 165.681V141.697C121.481 141.289 121.643 140.899 121.931 140.61C122.219 140.322 122.61 140.16 123.018 140.16H149.962C150.369 140.16 150.76 140.322 151.048 140.61C151.336 140.899 151.499 141.289 151.499 141.697V165.681C151.499 166.088 151.336 166.479 151.048 166.767C150.76 167.056 150.369 167.218 149.962 167.218Z" fill="#E6E6E6"/>
<path d="M243.152 195.265H167.016C166.595 195.266 166.178 195.183 165.788 195.022C165.399 194.861 165.045 194.625 164.747 194.327C164.449 194.029 164.212 193.676 164.051 193.287C163.889 192.897 163.806 192.48 163.806 192.059C163.806 191.637 163.889 191.22 164.051 190.831C164.212 190.442 164.449 190.088 164.747 189.79C165.045 189.493 165.399 189.256 165.788 189.096C166.178 188.935 166.595 188.852 167.016 188.852H243.152C244.002 188.852 244.818 189.19 245.419 189.792C246.02 190.393 246.358 191.208 246.358 192.059C246.358 192.909 246.02 193.725 245.419 194.326C244.818 194.927 244.002 195.265 243.152 195.265Z" fill="#E6E6E6"/>
<path d="M256.378 206.086H167.016C166.595 206.087 166.178 206.004 165.788 205.843C165.399 205.682 165.045 205.446 164.747 205.148C164.449 204.851 164.212 204.497 164.051 204.108C163.889 203.718 163.806 203.301 163.806 202.88C163.806 202.459 163.889 202.041 164.051 201.652C164.212 201.263 164.449 200.909 164.747 200.611C165.045 200.314 165.399 200.078 165.788 199.917C166.178 199.756 166.595 199.673 167.016 199.674H256.378C256.799 199.673 257.216 199.756 257.606 199.917C257.995 200.078 258.349 200.314 258.647 200.611C258.945 200.909 259.182 201.263 259.343 201.652C259.505 202.041 259.588 202.459 259.588 202.88C259.588 203.301 259.505 203.718 259.343 204.108C259.182 204.497 258.945 204.851 258.647 205.148C258.349 205.446 257.995 205.682 257.606 205.843C257.216 206.004 256.799 206.087 256.378 206.086Z" fill="#E6E6E6"/>
<path d="M149.962 210.998H123.018C122.61 210.998 122.219 210.836 121.931 210.548C121.643 210.259 121.481 209.869 121.48 209.461V185.477C121.481 185.07 121.643 184.679 121.931 184.391C122.219 184.103 122.61 183.941 123.018 183.94H149.962C150.369 183.941 150.76 184.103 151.048 184.391C151.336 184.679 151.499 185.07 151.499 185.477V209.461C151.499 209.869 151.336 210.259 151.048 210.548C150.76 210.836 150.369 210.998 149.962 210.998Z" fill="#E6E6E6"/>
<path d="M243.152 238.874H167.016C166.595 238.874 166.178 238.791 165.788 238.63C165.399 238.47 165.045 238.233 164.747 237.936C164.449 237.638 164.212 237.284 164.051 236.895C163.889 236.506 163.806 236.089 163.806 235.667C163.806 235.246 163.889 234.829 164.051 234.439C164.212 234.05 164.449 233.697 164.747 233.399C165.045 233.101 165.399 232.865 165.788 232.704C166.178 232.543 166.595 232.46 167.016 232.461H243.152C244.002 232.461 244.818 232.799 245.419 233.4C246.02 234.001 246.358 234.817 246.358 235.667C246.358 236.518 246.02 237.333 245.419 237.934C244.818 238.536 244.002 238.874 243.152 238.874Z" fill="#E6E6E6"/>
<path d="M256.378 249.695H167.016C166.595 249.695 166.178 249.613 165.788 249.452C165.399 249.291 165.045 249.055 164.747 248.757C164.449 248.459 164.212 248.105 164.051 247.716C163.889 247.327 163.806 246.91 163.806 246.488C163.806 246.067 163.889 245.65 164.051 245.261C164.212 244.871 164.449 244.518 164.747 244.22C165.045 243.922 165.399 243.686 165.788 243.525C166.178 243.364 166.595 243.282 167.016 243.282H256.378C256.799 243.282 257.216 243.364 257.606 243.525C257.995 243.686 258.349 243.922 258.647 244.22C258.945 244.518 259.182 244.871 259.343 245.261C259.505 245.65 259.588 246.067 259.588 246.488C259.588 246.91 259.505 247.327 259.343 247.716C259.182 248.105 258.945 248.459 258.647 248.757C258.349 249.055 257.995 249.291 257.606 249.452C257.216 249.613 256.799 249.695 256.378 249.695Z" fill="#E6E6E6"/>
<path d="M149.962 254.607H123.018C122.61 254.607 122.219 254.445 121.931 254.156C121.643 253.868 121.481 253.477 121.48 253.07V229.086C121.481 228.678 121.643 228.288 121.931 227.999C122.219 227.711 122.61 227.549 123.018 227.549H149.962C150.369 227.549 150.76 227.711 151.048 227.999C151.336 228.288 151.499 228.678 151.499 229.086V253.07C151.499 253.477 151.336 253.868 151.048 254.156C150.76 254.445 150.369 254.607 149.962 254.607Z" fill="#E6E6E6"/>
<path d="M243.236 102.216H187.105C186.254 102.216 185.439 101.878 184.838 101.277C184.236 100.675 183.898 99.8598 183.898 99.0095C183.898 98.1591 184.236 97.3436 184.838 96.7423C185.439 96.141 186.254 95.8032 187.105 95.8032H243.236C244.087 95.8032 244.902 96.141 245.504 96.7423C246.105 97.3436 246.443 98.1591 246.443 99.0095C246.443 99.8598 246.105 100.675 245.504 101.277C244.902 101.878 244.087 102.216 243.236 102.216Z" fill="#CCCCCC"/>
<path d="M256.462 113.037H187.105C186.684 113.037 186.267 112.954 185.878 112.793C185.489 112.632 185.135 112.396 184.838 112.098C184.54 111.8 184.304 111.447 184.143 111.058C183.981 110.669 183.898 110.252 183.898 109.831C183.898 109.41 183.981 108.993 184.143 108.604C184.304 108.215 184.54 107.861 184.838 107.564C185.135 107.266 185.489 107.03 185.878 106.869C186.267 106.707 186.684 106.624 187.105 106.624H256.462C257.313 106.624 258.128 106.962 258.729 107.564C259.331 108.165 259.669 108.98 259.669 109.831C259.669 110.681 259.331 111.497 258.729 112.098C258.128 112.699 257.313 113.037 256.462 113.037Z" fill="#CCCCCC"/>
<path d="M254.431 76.319V46.9133H272.435L282.437 55.1149V76.319H254.431Z" fill="#E6E6E6"/>
<path d="M224.879 275.429H259.641V313L242.26 303.304L224.879 313V275.429Z" fill="#7CD6ED"/>
<path d="M257.768 231.464C260.286 230.013 263.19 232.632 262.005 235.286L255.998 248.746C255.468 249.933 255.763 251.326 256.728 252.197L267.673 262.07C269.831 264.016 268.237 267.587 265.347 267.281L250.689 265.726C249.397 265.589 248.163 266.3 247.633 267.487L241.625 280.947C240.441 283.601 236.553 283.189 235.951 280.346L232.899 265.925C232.63 264.653 231.573 263.7 230.281 263.563L215.623 262.008C212.733 261.702 211.923 257.876 214.441 256.426L227.214 249.067C228.34 248.418 228.92 247.118 228.651 245.847L225.599 231.426C224.998 228.583 228.386 226.631 230.544 228.577L241.489 238.45C242.454 239.321 243.87 239.471 244.996 238.822L257.768 231.464Z" fill="#01B5E2"/>
<path d="M231.442 228.197C231.546 225.293 235.306 224.22 236.929 226.631L245.158 238.86C245.883 239.938 247.221 240.427 248.47 240.07L262.644 236.023C265.439 235.225 267.622 238.469 265.83 240.757L256.742 252.362C255.941 253.386 255.889 254.808 256.615 255.887L264.844 268.116C266.466 270.527 264.056 273.606 261.326 272.609L247.48 267.552C246.259 267.106 244.89 267.497 244.089 268.52L235.001 280.126C233.209 282.414 229.536 281.072 229.641 278.168L230.172 263.437C230.219 262.139 229.424 260.957 228.203 260.511L214.357 255.455C211.628 254.458 211.768 250.55 214.563 249.752L228.736 245.705C229.986 245.348 230.864 244.227 230.911 242.928L231.442 228.197Z" fill="#01B5E2"/>
<path d="M238.037 226.459C238.857 223.671 242.766 223.561 243.742 226.298L248.69 240.183C249.127 241.407 250.302 242.211 251.601 242.175L266.335 241.759C269.24 241.677 270.553 245.36 268.251 247.134L256.575 256.131C255.546 256.924 255.144 258.29 255.581 259.514L260.529 273.399C261.505 276.136 258.408 278.523 256.009 276.882L243.844 268.558C242.772 267.824 241.349 267.864 240.319 268.658L228.643 277.655C226.341 279.429 223.114 277.22 223.934 274.432L228.092 260.29C228.458 259.044 227.98 257.702 226.907 256.968L214.743 248.644C212.344 247.003 213.447 243.252 216.352 243.17L231.086 242.754C232.386 242.717 233.513 241.848 233.88 240.601L238.037 226.459Z" fill="#01B5E2"/>
<path d="M245.044 226.429C246.544 223.94 250.353 224.826 250.602 227.722L251.863 242.408C251.974 243.703 252.906 244.779 254.172 245.073L268.529 248.412C271.36 249.07 271.694 252.966 269.017 254.098L255.44 259.835C254.242 260.341 253.507 261.56 253.618 262.855L254.879 277.541C255.128 280.437 251.526 281.959 249.623 279.763L239.97 268.622C239.119 267.64 237.733 267.318 236.535 267.824L222.958 273.561C220.281 274.692 217.72 271.737 219.221 269.248L226.833 256.626C227.504 255.513 227.383 254.094 226.531 253.112L216.879 241.972C214.976 239.776 216.995 236.427 219.826 237.085L234.183 240.424C235.449 240.719 236.76 240.165 237.431 239.052L245.044 226.429Z" fill="#01B5E2"/>
<path d="M251.494 228.048C253.551 225.995 257.034 227.773 256.576 230.643L254.257 245.2C254.053 246.483 254.698 247.752 255.855 248.344L268.983 255.047C271.571 256.369 270.956 260.231 268.085 260.683L253.524 262.975C252.24 263.177 251.233 264.183 251.028 265.467L248.709 280.023C248.252 282.893 244.389 283.502 243.072 280.911L236.392 267.771C235.803 266.613 234.535 265.965 233.251 266.167L218.69 268.46C215.82 268.912 214.048 265.426 216.104 263.373L226.537 252.96C227.457 252.041 227.681 250.635 227.092 249.477L220.412 236.337C219.095 233.746 221.862 230.984 224.45 232.306L237.578 239.01C238.735 239.601 240.142 239.379 241.062 238.461L251.494 228.048Z" fill="#01B5E2"/>
<ellipse cx="241.581" cy="253.653" rx="19.0173" ry="19.3451" fill="#D9D9D9"/>
<path d="M98.2303 184.408C93.2336 181.493 91.3315 180.772 91.3315 180.768L91.2291 180.696C90.6836 180.271 90.2505 179.717 89.9682 179.081C89.9682 178.965 89.9682 178.849 89.9682 178.749V178.782C90.0503 177.238 91.1313 175.838 92.1594 174.614C93.0356 173.569 93.9108 172.526 94.787 171.484C95.0896 171.167 95.3202 170.789 95.4642 170.373C95.5171 170.155 95.5418 169.932 95.5362 169.708C95.5362 169.614 95.5362 169.524 95.5362 169.434C95.5362 168.656 95.5002 167.878 95.4743 167.106C95.4473 166.425 95.2764 165.569 94.6037 165.443C94.255 165.37 93.7949 165.496 93.6183 165.193C93.5531 165.07 93.5373 164.926 93.5722 164.791C93.5722 164.791 93.5722 164.811 93.5722 164.821C93.5711 164.808 93.5711 164.797 93.5722 164.784C93.7016 164.259 93.7848 163.724 93.8219 163.184C93.8332 162.911 93.7972 162.636 93.7128 162.376C93.3225 161.249 91.985 160.786 90.8028 160.573C89.62 160.36 88.2929 160.177 87.5505 159.243C87.3469 158.931 87.1276 158.63 86.8935 158.34C86.5495 158.034 86.1312 157.824 85.6813 157.736C84.2142 157.368 82.6678 157.504 81.286 158.124C80.7144 158.384 80.1396 158.73 79.5121 158.694C78.8847 158.657 78.3033 158.195 77.6594 158.084C76.6214 157.905 75.626 158.68 75.1135 159.595C74.8095 160.138 74.6479 160.751 74.6438 161.375C74.6438 161.408 74.6438 161.445 74.6438 161.478C74.6308 162.149 74.8731 162.799 75.3205 163.294C75.7673 163.766 76.4341 164.088 76.6344 164.708C76.71 164.961 76.6936 165.233 76.7593 165.486C76.7593 165.519 76.779 165.55 76.7889 165.583L76.7528 165.626C75.6857 167.017 75.1076 168.728 75.1102 170.489C75.1206 172.199 75.6669 173.862 76.6706 175.237C77.6743 176.612 79.0835 177.629 80.6947 178.141C80.6947 178.217 80.6947 178.297 80.6947 178.38C80.717 178.879 80.6316 179.378 80.4443 179.84C80.2571 180.303 79.9727 180.718 79.6107 181.058L72.5216 183.939C72.5216 183.939 68.2512 183.426 66.7138 189.743C66.4674 190.791 66.3787 191.871 66.4509 192.947C66.5069 193.901 66.3755 195.578 65.2815 197.747C63.5306 201.22 63.9281 209.187 67.5088 209.975C70.889 210.72 72.2128 210.41 72.3508 210.374V210.514C72.2949 212.011 71.7595 224.904 69.8116 226.481C69.2695 226.91 69.3713 227.203 69.8116 227.399C69.8116 227.399 69.8116 227.482 69.8116 227.633C69.7524 228.577 69.4502 232.166 68.146 234.212C66.6481 236.571 66.8189 250.21 66.8189 250.21L65.7874 258.257C65.7874 258.257 66.4214 263.226 65.7874 264.094C65.2191 264.869 64.4734 283.259 64.3026 287.244H64.2369C63.925 287.263 63.6224 287.359 63.3556 287.524C63.0887 287.689 62.8658 287.917 62.7061 288.189C61.8586 289.566 58.935 292.104 58.935 292.104C58.3009 293.019 55.9489 293.894 54.7072 294.306C54.5409 294.361 54.3804 294.43 54.2275 294.516C53.7626 294.772 53.3891 295.171 53.1599 295.654C53.0792 295.796 53.0277 295.953 53.0084 296.116C52.9893 296.279 53.0028 296.444 53.0482 296.601C53.3767 297.39 59.9697 297.932 61.6385 297.154C62.9525 296.535 68.1559 295.716 70.3174 295.397C70.7097 295.347 71.0743 295.166 71.3539 294.884C71.6334 294.6 71.8119 294.231 71.8614 293.833C71.8821 293.697 71.8754 293.556 71.8414 293.422C71.8075 293.289 71.7473 293.162 71.6642 293.052C71.2504 292.534 71.0368 291.117 70.9416 290.192C71.117 290.119 71.2809 290.02 71.4278 289.899C71.2504 287.032 71.6562 284.158 72.6202 281.456C74.2101 277.198 74.6898 269.307 74.2922 264.178C74.2922 264.178 79.1442 243.031 82.9647 241.058C83.0237 241.131 84.8765 243.54 85.113 250.998C85.3495 258.572 88.0531 263.542 88.0531 263.542C88.0531 263.542 86.8606 276.403 88.0531 281.216L86.4862 288.797C86.4208 288.743 86.3583 288.686 86.2989 288.624C86.2989 288.624 86.3449 288.837 86.4106 289.173L86.3777 289.333L86.4434 289.35C86.6208 290.297 86.8836 291.951 86.772 292.922C86.7096 293.478 86.5584 294.233 86.4434 294.978C86.2792 296.146 86.2332 297.28 86.8409 297.526C87.8264 297.932 93.6836 298.488 94.6791 297.194C94.9018 296.928 95.0469 296.605 95.0986 296.261C95.1493 295.917 95.1043 295.564 94.9682 295.245C94.8962 295.066 94.7983 294.898 94.6791 294.749C94.6791 294.749 93.1256 292.177 93.5655 290.365C93.6059 290.187 93.6093 290.004 93.5778 289.826C93.5452 289.647 93.4777 289.477 93.3776 289.326C93.6059 286.456 94.0615 283.61 94.7409 280.813C95.7263 277.018 97.8354 268.695 96.2921 263.22C96.2325 263.007 96.1673 262.794 96.0953 262.587C95.2033 259.6 94.9052 256.462 95.2179 253.356C94.6431 250.705 94.6431 247.96 95.2179 245.309C96.1639 240.895 96.8309 236.571 96.8309 236.571C96.8309 236.571 97.3562 230.733 96.8962 227.153L96.8669 226.924L97.1166 226.867C97.1166 226.867 95.7657 220.793 95.2865 216.927C95.1751 216.013 95.0266 214.859 94.8658 213.624C95.3067 213.548 95.7398 213.437 96.1639 213.291C100.461 211.791 101.811 198.22 101.811 198.22V193.915C101.811 193.915 103.243 187.338 98.2303 184.408ZM66.2243 289.194L66.0141 289.08L66.2243 289.194Z" fill="url(#paint0_linear_1268_39)"/>
<path d="M95.5752 262.627C97.4744 268.067 95.2401 276.897 94.2337 280.84C93.5567 283.691 93.1091 286.591 92.8934 289.513C90.5811 289.901 88.2152 289.847 85.9231 289.352L87.5988 281.233C86.4124 276.423 87.5988 263.571 87.5988 263.571C87.5988 263.571 84.9178 258.6 84.6698 251.032C84.4352 243.583 82.5921 241.175 82.5317 241.099C78.7013 243.079 73.8823 264.204 73.8823 264.204C74.2777 269.328 73.8018 277.214 72.2066 281.474C71.2452 284.178 70.8406 287.047 71.017 289.909C70.464 290.373 69.6932 290.453 68.8621 290.32C66.6 289.956 63.8889 288.014 63.8889 288.014C63.8889 288.014 64.7602 264.998 65.3936 264.124C66.027 263.25 65.3936 258.291 65.3936 258.291L66.4225 250.248C66.4225 250.248 66.2649 236.609 67.7629 234.237C69.0632 232.192 69.3614 228.603 69.4218 227.663C69.4218 227.512 69.4218 227.428 69.4218 227.428L71.714 224.697C71.714 224.697 93.8952 223.028 95.558 224.697C95.9665 225.104 96.2281 226.031 96.3693 227.192C96.8249 230.767 96.3016 236.602 96.3016 236.602C96.3016 236.602 95.6314 240.938 94.687 245.351C94.1144 248.001 94.1144 250.743 94.687 253.394C94.3772 256.5 94.679 259.636 95.5752 262.627Z" fill="#65617D"/>
<path d="M93.9395 297.162C92.9601 298.502 87.1965 297.935 86.2142 297.506C85.6137 297.248 85.66 296.083 85.8226 294.881C85.9256 294.115 86.0749 293.336 86.1347 292.769C86.2939 291.305 85.6667 288.341 85.6667 288.341C85.6667 288.341 86.9609 289.763 87.2728 288.341C87.3449 288.069 87.4872 287.823 87.6842 287.629C87.8813 287.436 88.1256 287.302 88.3911 287.241C89.0634 287.03 89.7864 287.077 90.4284 287.371C91.4477 287.828 93.1464 288.804 92.8407 290.119C92.4101 291.985 93.9395 294.631 93.9395 294.631C94.0577 294.786 94.1543 294.958 94.2247 295.142C94.3622 295.473 94.4088 295.838 94.3577 296.194C94.3077 296.55 94.1622 296.886 93.9395 297.162Z" fill="#A27772"/>
<path opacity="0.1" d="M93.9381 297.122C92.9528 298.526 87.1551 297.932 86.1672 297.482C85.563 297.212 85.6098 295.993 85.7733 294.733C86.3942 295.046 87.4423 295.309 89.2176 295.133C89.6302 295.089 90.0451 295.076 90.46 295.089C91.715 295.153 92.9723 295.126 94.2249 295.011C94.3621 295.357 94.409 295.738 94.3575 296.111C94.3072 296.483 94.1621 296.834 93.9381 297.122Z" fill="black"/>
<path opacity="0.1" d="M74.1414 264.007C74.5201 269.169 74.0643 277.114 72.5365 281.406C71.6157 284.13 71.2282 287.021 71.3971 289.906C70.8676 290.372 70.1293 290.454 69.3333 290.319C69.7922 286.958 71.7406 272.53 72.9923 261.126C74.4142 248.136 81.0711 239.2 81.0711 239.2L82.3999 240.729C78.7569 242.723 74.1414 264.007 74.1414 264.007Z" fill="black"/>
<path d="M92.2 181.47L91.2213 186.361L86.4298 194.556L80.5199 191.987C80.5199 191.987 72.4841 183.426 77.5327 182.205C78.1379 182.073 78.7096 181.815 79.211 181.446C80.2012 180.684 80.513 179.58 80.5199 178.497C80.4799 177.284 80.2009 176.091 79.6994 174.99L90.037 171.689C89.6098 173.07 89.3601 174.502 89.2948 175.948C89.2169 178.811 90.2611 180.226 91.1191 180.898C91.4384 181.16 91.8064 181.355 92.2 181.47Z" fill="#FBBEBE"/>
<path opacity="0.1" d="M90.0222 171.689C89.6168 173.147 89.3802 174.661 89.3183 176.188C88.3253 177.524 87.0034 178.494 85.5216 178.974C84.0398 179.453 82.4656 179.421 81 178.881C80.9621 177.599 80.6976 176.339 80.2222 175.176L90.0222 171.689Z" fill="black"/>
<path d="M91.1111 170.6C91.1111 172.108 90.6321 173.582 89.7355 174.835C88.8376 176.088 87.5622 177.065 86.0699 177.642C84.5776 178.219 82.9355 178.37 81.3513 178.075C79.7671 177.782 78.3119 177.056 77.1698 175.99C76.0276 174.924 75.2498 173.565 74.9348 172.088C74.6196 170.609 74.7813 169.076 75.3994 167.684C76.0176 166.29 77.0644 165.1 78.4074 164.263C79.7504 163.425 81.3294 162.978 82.9445 162.978C84.0178 162.976 85.081 163.17 86.073 163.553C87.0651 163.935 87.9664 164.497 88.7253 165.205C89.4843 165.913 90.0858 166.755 90.4952 167.681C90.9047 168.606 91.1146 169.599 91.1111 170.6Z" fill="#FBBEBE"/>
<path opacity="0.1" d="M92.2 180.992L91.2213 186.061L86.4298 194.556L80.5199 191.892C80.5199 191.892 72.4841 183.02 77.5327 181.755C78.1379 181.618 78.7096 181.35 79.211 180.968C78.299 183.61 82.0625 189.105 82.0625 189.105C82.5 189.784 83.507 189.358 83.507 189.358C85.9279 188.972 90.3935 181.622 91.1191 180.4C91.4384 180.672 91.8064 180.874 92.2 180.992Z" fill="black"/>
<path opacity="0.1" d="M96.5555 227.54C95.1347 227.911 87.2764 229.799 84.2983 229.324C81.019 228.798 74.6397 228.449 74.6397 228.449C74.6397 228.449 70.5787 228.686 69.3333 228.078C69.3333 227.911 69.3333 227.818 69.3333 227.818L71.648 224.78C71.648 224.78 94.0477 222.925 95.7269 224.78C96.1673 225.218 96.4037 226.246 96.5555 227.54Z" fill="black"/>
<path d="M82.0312 188.718C82.0312 188.718 77.79 182.942 79.3885 180.691L72.2221 183.582C72.2221 183.582 67.9094 183.066 66.355 189.394C66.1059 190.446 66.0154 191.53 66.0863 192.607C66.1442 193.561 66.0116 195.24 64.9062 197.414C63.1375 200.892 63.5456 208.879 67.1577 209.668C70.7698 210.457 72.0623 210.062 72.0623 210.062C72.0623 210.062 71.5793 224.53 69.491 226.19C67.4026 227.848 74.8207 227.454 74.8207 227.454C74.8207 227.454 81.2285 227.788 84.5244 228.247C87.8201 228.705 97.0652 226.574 97.0652 226.574C97.0652 226.574 95.7037 220.487 95.2146 216.614C94.7242 212.741 93.6085 204.494 93.6085 204.494L101.809 193.57C101.809 193.57 103.255 186.969 98.1903 184.045C93.1263 181.123 91.2175 180.4 91.2175 180.4C91.2175 180.4 86.1161 188.551 83.4768 188.946C83.4768 188.953 82.4701 189.354 82.0312 188.718Z" fill="#FF9800"/>
<path opacity="0.1" d="M72.9901 191.289C72.9901 191.289 72.9053 194.032 73.4289 195.112C73.9526 196.192 75.8668 202.178 75.8668 202.178H71.5112C71.5112 202.178 73.8641 199.769 73.6908 198.604C73.5174 197.441 72.9901 191.289 72.9901 191.289Z" fill="black"/>
<path d="M84.574 210.889C84.574 210.889 75.5234 208.792 74.6808 207.007C73.8381 205.222 71.5112 201.219 71.5112 201.219L72.4648 200L76.8689 203.286C76.8689 203.286 82.1155 207.23 84.574 207.639C87.0327 208.046 84.574 210.889 84.574 210.889Z" fill="#FBBEBE"/>
<path opacity="0.05" d="M84.574 210.889C84.574 210.889 75.5234 208.792 74.6808 207.007C73.8381 205.222 71.5112 201.219 71.5112 201.219L72.4648 200L76.8689 203.286C76.8689 203.286 82.1155 207.23 84.574 207.639C87.0327 208.046 84.574 210.889 84.574 210.889Z" fill="black"/>
<path d="M92.2 201.14V205.953H91.4114C87.5159 205.953 83.6849 206.925 80.2791 208.779L78.8038 209.582L78.4054 209.8L75.8667 204.192L78.2427 202.102H78.3639C78.9457 202.156 81.4568 202.36 82.5201 202.01C83.5834 201.659 84.7886 200.603 87.7638 201.351C89.2324 201.717 90.4827 203.332 91.9201 202.829L92.2 201.14Z" fill="#FBBEBE"/>
<path opacity="0.1" d="M99.3534 192.343L100.911 194.132V198.466C100.911 198.466 99.5937 212.144 95.3845 213.654C91.1753 215.165 83.6751 212.78 83.6751 212.78C83.6751 212.78 81.735 207.532 82.6408 207.213C83.5466 206.892 90.6576 204.979 90.6576 204.979C90.6576 204.979 90.5561 196.955 92.1137 194.57C92.1137 194.57 91.102 187.094 94.604 186.937C98.1049 186.779 99.3534 192.343 99.3534 192.343Z" fill="black"/>
<path d="M100.351 192.343L102 194.132V198.466C102 198.466 100.605 212.144 96.1447 213.654C91.6843 215.165 83.7501 212.78 83.7501 212.78C83.7501 212.78 81.6959 207.532 82.655 207.213C83.6141 206.892 91.1398 204.979 91.1398 204.979C91.1398 204.979 91.0359 196.955 92.6851 194.57C92.6851 194.57 91.6115 187.094 95.3219 186.937C99.0323 186.779 100.351 192.343 100.351 192.343Z" fill="#FF9800"/>
<path opacity="0.1" d="M88.9335 173.787C89.0021 173.298 88.9415 172.801 88.7571 172.341C88.6603 172.113 88.4879 171.924 88.2668 171.801C88.0457 171.678 87.7886 171.629 87.5356 171.662C86.8823 171.81 86.5884 172.636 85.9417 172.834C85.3962 173.001 84.7986 172.63 84.5373 172.14C84.3185 171.629 84.2268 171.076 84.2694 170.524C84.2694 169.896 84.2694 169.282 84.2694 168.66C84.2694 167.984 84.2466 167.255 83.8122 166.723C83.2733 166.064 82.0093 165.78 81.1667 165.803C80.6043 165.808 80.0647 166.017 79.6544 166.388C79.4485 166.587 79.1988 166.74 78.9236 166.834C78.6483 166.929 78.3546 166.963 78.0639 166.934C77.8075 166.897 77.5676 166.789 77.3717 166.625C77.1758 166.463 77.0319 166.249 76.9567 166.01C76.9552 166.002 76.9552 165.994 76.9567 165.985C77.6129 165.15 78.4418 164.454 79.3909 163.943C80.3402 163.432 81.3893 163.115 82.4719 163.014C83.5546 162.912 84.6474 163.027 85.6814 163.352C86.7155 163.677 87.6684 164.205 88.4801 164.902C89.2917 165.599 89.9447 166.45 90.3976 167.403C90.8495 168.354 91.0933 169.387 91.1101 170.433C91.1279 171.48 90.921 172.519 90.5005 173.485C90.08 174.45 89.4564 175.322 88.6688 176.044C88.7994 175.297 88.8876 174.544 88.9335 173.787Z" fill="black"/>
<path d="M77.9908 166.359C77.7292 166.318 77.4842 166.206 77.2838 166.033C77.0834 165.86 76.9359 165.634 76.8578 165.382C76.7945 165.129 76.8111 164.857 76.7345 164.607C76.5512 163.989 75.8914 163.667 75.4482 163.198C74.5618 162.26 74.6184 160.714 75.2448 159.583C75.7547 158.673 76.7379 157.905 77.7675 158.081C78.4041 158.194 78.954 158.646 79.6004 158.686C80.247 158.726 80.7901 158.38 81.3567 158.12C82.7217 157.505 84.2563 157.368 85.7089 157.736C86.156 157.824 86.5706 158.032 86.9086 158.337C87.138 158.625 87.3516 158.924 87.5485 159.235C88.2816 160.169 89.5979 160.352 90.7677 160.565C91.9374 160.778 93.2634 161.23 93.6468 162.363C93.9035 163.108 93.6468 163.916 93.5098 164.691C93.4596 164.849 93.4699 165.022 93.5406 165.172C93.7232 165.475 94.1797 165.349 94.5403 165.419C95.2067 165.558 95.3733 166.416 95.3961 167.081C95.4281 167.852 95.4486 168.628 95.46 169.408C95.4794 169.696 95.4566 169.987 95.3927 170.269C95.2489 170.672 95.0218 171.04 94.7263 171.349L92.1245 174.469C90.9708 175.851 89.7479 177.461 89.978 179.246C89.4313 179.488 88.7848 179.019 88.6048 178.448C88.4249 177.876 88.5682 177.264 88.6915 176.68C88.9011 175.668 89.0381 174.642 89.1014 173.61C89.1716 173.092 89.1098 172.565 88.9215 172.078C88.8221 171.837 88.6456 171.636 88.4194 171.506C88.1932 171.376 87.9303 171.324 87.6717 171.36C87.0053 171.516 86.7086 172.39 86.0488 172.599C85.4923 172.779 84.8825 172.384 84.6159 171.865C84.3943 171.324 84.3007 170.739 84.3426 170.156V168.184C84.3426 167.469 84.3192 166.699 83.876 166.136C83.3295 165.438 82.0365 165.139 81.1768 165.163C80.6029 165.169 80.0522 165.39 79.6337 165.781C79.4214 165.995 79.1633 166.158 78.8788 166.258C78.5943 166.358 78.2907 166.392 77.9908 166.359Z" fill="#7C5C5C"/>
<path opacity="0.1" d="M79.1333 191.289L81.9193 201.089C81.9193 201.089 84.1113 201.079 79.1333 191.289Z" fill="black"/>
<path opacity="0.1" d="M87.8445 189.111C87.8445 189.111 84.7327 194.445 85.9486 199.956L86.526 200C86.526 200 85.493 197.448 87.8445 189.111Z" fill="black"/>
<path opacity="0.1" d="M90.0222 219.905C90.0222 219.905 94.0812 218.484 94.3778 221.778C94.3778 221.778 93.6106 219.518 90.0222 219.905Z" fill="black"/>
<path opacity="0.1" d="M78.4851 202.178C78.4851 202.178 77.6755 207.697 79.1335 209.904C76.846 210.688 74.418 211.01 71.9982 210.849L71.5112 202.178H78.4851Z" fill="black"/>
<path opacity="0.1" d="M79.1334 209.586L78.6903 209.8L75.8667 204.248L78.5093 202.178H78.6441C78.6018 202.447 77.866 207.229 79.1334 209.586Z" fill="black"/>
<path d="M78.4962 202.178C78.4962 202.178 77.7005 207.697 79.1333 209.904C76.8852 210.688 74.4992 211.01 72.1213 210.849L69.3333 202.178H78.4962Z" fill="#FF9800"/>
<path d="M71.5007 294.08C71.4557 294.496 71.2824 294.886 71.0079 295.185C70.7335 295.485 70.3737 295.678 69.9853 295.734C67.8692 296.088 62.762 296.936 61.4744 297.593C59.8239 298.431 53.3598 297.844 53.0462 297.01C53.0022 296.843 52.9895 296.668 53.0087 296.494C53.028 296.321 53.0789 296.154 53.1585 296.003C53.3094 295.67 53.5213 295.374 53.7817 295.13C54.042 294.888 54.3454 294.703 54.6737 294.589C55.8952 294.15 58.1995 293.228 58.8202 292.26C58.8202 292.26 61.6924 289.567 62.5111 288.114C62.6648 287.827 62.8824 287.585 63.1446 287.411C63.4067 287.237 63.7052 287.134 64.0132 287.113C64.6966 287.078 65.4559 287.45 65.7695 289.05C65.7695 289.05 69.5132 291.337 70.5267 289.333C70.5267 289.333 70.6819 292.412 71.3025 293.257C71.3847 293.373 71.4445 293.506 71.4784 293.647C71.5124 293.788 71.52 293.936 71.5007 294.08Z" fill="#A27772"/>
<path opacity="0.1" d="M71.4995 294.408C71.4545 294.79 71.2812 295.147 71.0067 295.421C70.7324 295.696 70.3726 295.872 69.9842 295.924C67.8682 296.248 62.7614 297.024 61.4739 297.627C59.8234 298.395 53.3598 297.857 53.0462 297.093C53.0022 296.939 52.9895 296.779 53.0087 296.621C53.028 296.462 53.0789 296.309 53.1585 296.169C53.3809 295.705 53.7469 295.319 54.2048 295.069C55.2612 295.756 57.605 296.429 62.7614 295.639C67.68 294.884 70.1129 294.146 71.3013 293.644C71.3847 293.752 71.4452 293.875 71.4792 294.006C71.5132 294.138 71.5201 294.274 71.4995 294.408Z" fill="black"/>
<g opacity="0.1">
<path opacity="0.1" d="M93.3577 164.968C93.36 164.955 93.36 164.941 93.3577 164.928C93.5143 164.344 93.5966 163.743 93.6023 163.14C93.552 163.622 93.4697 164.102 93.3577 164.574C93.328 164.704 93.328 164.838 93.3577 164.968Z" fill="black"/>
<path opacity="0.1" d="M88.7558 172.352C88.8796 172.635 88.9454 172.943 88.9494 173.252C88.9853 172.825 88.919 172.394 88.7558 171.997C88.6565 171.755 88.4798 171.553 88.2534 171.422C88.027 171.291 87.7635 171.238 87.5042 171.273C86.8366 171.43 86.5396 172.311 85.8787 172.521C85.3213 172.698 84.7106 172.301 84.4436 171.78C84.2184 171.238 84.1247 170.65 84.1698 170.065C84.1698 169.397 84.1698 168.747 84.1698 168.089C84.1698 167.371 84.1464 166.597 83.7025 166.032C83.1518 165.328 81.8601 165.031 80.9956 165.052C80.4214 165.058 79.8706 165.28 79.4536 165.676C79.2428 165.887 78.9875 166.048 78.7062 166.149C78.4249 166.248 78.1249 166.284 77.8281 166.253C77.5654 166.214 77.3189 166.101 77.118 165.927C76.917 165.754 76.7698 165.526 76.6933 165.272C76.6266 165.019 76.6466 164.748 76.5699 164.494C76.3862 163.873 75.7254 163.553 75.2815 163.083C74.8674 162.623 74.6307 162.031 74.6139 161.414C74.5822 161.778 74.6251 162.145 74.7398 162.494C74.8546 162.841 75.0388 163.161 75.2815 163.436C75.7254 163.907 76.3862 164.23 76.5699 164.852C76.6466 165.102 76.6266 165.375 76.6933 165.629C76.7711 165.883 76.9189 166.109 77.1196 166.283C77.3203 166.456 77.5659 166.57 77.8281 166.611C78.1253 166.64 78.4254 166.605 78.7067 166.504C78.988 166.404 79.2432 166.242 79.4536 166.03C79.8726 165.64 80.4207 165.421 80.9923 165.412C81.8568 165.386 83.1485 165.693 83.6992 166.394C84.1431 166.957 84.1631 167.729 84.1665 168.45C84.1665 169.117 84.1665 169.767 84.1665 170.426C84.121 171.012 84.2149 171.601 84.4401 172.144C84.7072 172.665 85.318 173.059 85.8754 172.882C86.543 172.672 86.8267 171.794 87.5009 171.634C87.7598 171.6 88.0229 171.651 88.2496 171.78C88.4764 171.909 88.6542 172.11 88.7558 172.352Z" fill="black"/>
<path opacity="0.1" d="M95.241 170.177C95.0958 170.582 94.8684 170.953 94.5735 171.265C93.7003 172.306 92.8317 173.348 91.9665 174.393C90.8716 175.711 89.7101 177.236 89.7938 178.918C89.8738 177.376 90.9482 175.975 91.9665 174.749L94.5735 171.619C94.8684 171.307 95.0958 170.938 95.241 170.534C95.305 170.25 95.3279 169.957 95.3073 169.666C95.3061 169.838 95.2833 170.01 95.241 170.177Z" fill="black"/>
<path opacity="0.1" d="M88.4381 178.393C88.395 178.255 88.3681 178.113 88.358 177.969C88.336 178.231 88.3632 178.495 88.4381 178.747C88.615 179.321 89.2658 179.792 89.8133 179.547C89.8133 179.431 89.7894 179.314 89.7859 179.214C89.2458 179.431 88.6016 178.954 88.4381 178.393Z" fill="black"/>
</g>
<path opacity="0.1" d="M87.8445 289.289C87.8445 289.289 90.2544 293.17 93.2889 290.57L87.8445 289.289Z" fill="black"/>
<path opacity="0.1" d="M95.4666 253.356C95.4666 253.356 93.3605 254.6 93.2919 255.311C93.2219 256.024 94.3786 254.793 94.3786 254.793L95.4666 253.356Z" fill="black"/>
<path opacity="0.1" d="M95.4666 262.067C94.8339 262.572 94.047 262.865 93.2247 262.903C91.8645 262.96 91.9776 264.66 92.8684 264.149C93.7581 263.638 95.4666 262.067 95.4666 262.067Z" fill="black"/>
<path opacity="0.1" d="M96.5555 263.156C96.5555 263.156 95.3543 267.082 94.3777 266.325L96.5555 263.156Z" fill="black"/>
<defs>
<linearGradient id="paint0_linear_1268_39" x1="77.4952" y1="298.008" x2="77.4952" y2="157.523" gradientUnits="userSpaceOnUse">
<stop stop-color="#808080" stop-opacity="0.25"/>
<stop offset="0.54" stop-color="#808080" stop-opacity="0.12"/>
<stop offset="1" stop-color="#808080" stop-opacity="0.1"/>
</linearGradient>
</defs>
</svg>
