<svg width="208" height="178" viewBox="0 0 208 178" fill="none" xmlns="http://www.w3.org/2000/svg">
<path fill-rule="evenodd" clip-rule="evenodd" d="M29.4286 85.8419C26.6773 81.0766 28.31 74.9833 33.0753 72.2321L136.614 12.4538C141.38 9.70254 147.473 11.3352 150.224 16.1005C152.959 20.8367 151.362 26.8847 146.664 29.6595L129.321 39.6728C124.556 42.424 122.923 48.5173 125.674 53.2826C128.425 58.0478 134.519 59.6805 139.284 56.9293L156.606 46.9287L156.54 46.9666L53.0014 106.745L52.9596 106.769L52.9158 106.794L94.7043 82.6672C99.4695 79.9159 101.102 73.8226 98.351 69.0574C95.5998 64.2921 89.5065 62.6594 84.7412 65.4106L42.9351 89.5474C38.1855 92.2161 32.16 90.5728 29.4286 85.8419ZM28.5544 120.86C23.7891 123.611 22.1564 129.704 24.9077 134.469C27.6423 139.206 33.6789 140.848 38.4312 138.165L73.0302 118.19C77.7955 115.438 83.8888 117.071 86.64 121.836C89.3912 126.602 87.7585 132.695 82.9933 135.446L81.5194 136.297C81.5314 136.29 81.5433 136.283 81.5552 136.277L127.531 109.732C122.772 112.45 116.706 110.813 113.963 106.062C111.212 101.296 112.845 95.203 117.61 92.4518L179.512 56.7128C184.226 53.9437 185.831 47.8847 183.092 43.1415C180.341 38.3762 174.248 36.7435 169.483 39.4947L28.5544 120.86ZM67.175 144.579C62.4098 147.33 60.7771 153.424 63.5283 158.189C66.2795 162.954 72.3729 164.587 77.1381 161.836L167.735 109.53C172.5 106.778 174.133 100.685 171.382 95.9199C168.63 91.1546 162.537 89.5219 157.772 92.2731L67.175 144.579Z" fill="#FF5C5C" fill-opacity="0.1"/>
<mask id="path-2-outside-1_1133_348" maskUnits="userSpaceOnUse" x="72.8955" y="52.3242" width="77" height="76" fill="black">
<rect fill="white" x="72.8955" y="52.3242" width="77" height="76"/>
<path fill-rule="evenodd" clip-rule="evenodd" d="M76.8079 114.337L86.2039 123.441C87.3806 124.582 89.2543 124.567 90.4129 123.408L111.029 102.793L131.978 123.742C133.15 124.914 135.049 124.914 136.221 123.742L145.324 114.639C146.493 113.47 146.496 111.575 145.33 110.402L124.432 89.3896L144.272 69.5488C145.444 68.3773 145.444 66.4778 144.272 65.3062L135.169 56.2029C134 55.0336 132.105 55.031 130.932 56.1971L111.068 75.9533L91.4716 56.2498C90.288 55.0596 88.3581 55.0722 87.1901 56.2777L78.0856 65.6737C76.9454 66.8504 76.9602 68.7241 78.1187 69.8827L97.5922 89.3561L76.78 110.055C75.5898 111.239 75.6024 113.169 76.8079 114.337Z"/>
</mask>
<path fill-rule="evenodd" clip-rule="evenodd" d="M76.8079 114.337L86.2039 123.441C87.3806 124.582 89.2543 124.567 90.4129 123.408L111.029 102.793L131.978 123.742C133.15 124.914 135.049 124.914 136.221 123.742L145.324 114.639C146.493 113.47 146.496 111.575 145.33 110.402L124.432 89.3896L144.272 69.5488C145.444 68.3773 145.444 66.4778 144.272 65.3062L135.169 56.2029C134 55.0336 132.105 55.031 130.932 56.1971L111.068 75.9533L91.4716 56.2498C90.288 55.0596 88.3581 55.0722 87.1901 56.2777L78.0856 65.6737C76.9454 66.8504 76.9602 68.7241 78.1187 69.8827L97.5922 89.3561L76.78 110.055C75.5898 111.239 75.6024 113.169 76.8079 114.337Z" fill="#E74C3C"/>
<path d="M86.2039 123.441L88.2916 121.287L88.2916 121.287L86.2039 123.441ZM76.8079 114.337L74.7202 116.491L76.8079 114.337ZM90.4129 123.408L92.5342 125.53H92.5342L90.4129 123.408ZM111.029 102.793L113.15 100.671L111.029 98.5499L108.907 100.671L111.029 102.793ZM131.978 123.742L129.857 125.863H129.857L131.978 123.742ZM136.221 123.742L138.342 125.863H138.342L136.221 123.742ZM145.324 114.639L147.445 116.76V116.76L145.324 114.639ZM145.33 110.402L143.203 112.518V112.518L145.33 110.402ZM124.432 89.3896L122.31 87.2683L120.195 89.3838L122.304 91.5051L124.432 89.3896ZM144.272 69.5488L146.394 71.6701V71.6701L144.272 69.5488ZM144.272 65.3062L146.394 63.1849V63.1849L144.272 65.3062ZM135.169 56.2029L137.29 54.0816V54.0816L135.169 56.2029ZM130.932 56.1971L133.048 58.3242V58.3242L130.932 56.1971ZM111.068 75.9533L108.941 78.0688L111.057 80.1959L113.184 78.0804L111.068 75.9533ZM91.4716 56.2498L89.3445 58.3653L89.3445 58.3653L91.4716 56.2498ZM87.1901 56.2777L89.3445 58.3653V58.3653L87.1901 56.2777ZM78.0856 65.6737L80.2401 67.7614L80.2401 67.7614L78.0856 65.6737ZM78.1187 69.8827L75.9974 72.004L75.9974 72.004L78.1187 69.8827ZM97.5922 89.3561L99.7077 91.4832L101.841 89.3619L99.7135 87.2348L97.5922 89.3561ZM76.78 110.055L78.8955 112.182L78.8955 112.182L76.78 110.055ZM88.2916 121.287L78.8955 112.182L74.7202 116.491L84.1163 125.596L88.2916 121.287ZM88.2916 121.287H88.2916L84.1163 125.596C86.4696 127.876 90.2171 127.847 92.5342 125.53L88.2916 121.287ZM108.907 100.671L88.2916 121.287L92.5342 125.53L113.15 104.914L108.907 100.671ZM134.1 121.621L113.15 100.671L108.907 104.914L129.857 125.863L134.1 121.621ZM134.1 121.621H134.1L129.857 125.863C132.2 128.207 135.999 128.207 138.342 125.863L134.1 121.621ZM143.203 112.518L134.1 121.621L138.342 125.863L147.445 116.76L143.203 112.518ZM143.203 112.518V112.518L147.445 116.76C149.784 114.422 149.789 110.631 147.457 108.286L143.203 112.518ZM122.304 91.5051L143.203 112.518L147.457 108.286L126.559 87.2741L122.304 91.5051ZM142.151 67.4275L122.31 87.2683L126.553 91.5109L146.394 71.6701L142.151 67.4275ZM142.151 67.4275V67.4275L146.394 71.6701C148.737 69.327 148.737 65.528 146.394 63.1849L142.151 67.4275ZM133.048 58.3242L142.151 67.4275L146.394 63.1849L137.29 54.0816L133.048 58.3242ZM133.048 58.3242V58.3242L137.29 54.0816C134.952 51.7429 131.162 51.7378 128.817 54.07L133.048 58.3242ZM113.184 78.0804L133.048 58.3242L128.817 54.07L108.953 73.8262L113.184 78.0804ZM89.3445 58.3653L108.941 78.0688L113.195 73.8378L93.5987 54.1342L89.3445 58.3653ZM89.3445 58.3653H89.3445L93.5987 54.1342C91.2314 51.754 87.3717 51.7791 85.0356 54.1901L89.3445 58.3653ZM80.2401 67.7614L89.3445 58.3653L85.0356 54.1901L75.9311 63.5861L80.2401 67.7614ZM80.2401 67.7614L80.2401 67.7614L75.9311 63.5861C73.6508 65.9394 73.6803 69.6869 75.9974 72.004L80.2401 67.7614ZM99.7135 87.2348L80.2401 67.7614L75.9974 72.004L95.4709 91.4775L99.7135 87.2348ZM78.8955 112.182L99.7077 91.4832L95.4767 87.2291L74.6644 107.928L78.8955 112.182ZM78.8955 112.182V112.182L74.6644 107.928C72.2842 110.296 72.3093 114.155 74.7202 116.491L78.8955 112.182Z" fill="white" mask="url(#path-2-outside-1_1133_348)"/>
<circle cx="73.5" cy="28.1406" r="2.5" fill="#E74C3C"/>
<circle cx="150.5" cy="23.1406" r="2.5" fill="#782D2D"/>
<circle cx="32.5" cy="70.1406" r="2.5" fill="#782D2D"/>
<circle cx="46.5" cy="122.141" r="2.5" fill="#E74C3C"/>
<circle cx="103.5" cy="137.5" r="2.5" fill="#782D2D"/>
<circle cx="153.5" cy="137.5" r="2.5" fill="#E74C3C"/>
<circle cx="180.5" cy="85.5" r="2.5" fill="#E74C3C"/>
</svg>
