<?xml version="1.0" encoding="UTF-8"?>
<svg width="238px" height="32px" viewBox="0 0 238 32" version="1.1" xmlns="http://www.w3.org/2000/svg" xmlns:xlink="http://www.w3.org/1999/xlink">
    <!-- Generator: Sketch 61 (89581) - https://sketch.com -->
    <title>logo</title>
    <desc>Created with Sketch.</desc>
    <g id="Page-1" stroke="none" stroke-width="1" fill="none" fill-rule="evenodd">
        <g id="logo_simple" transform="translate(-23.000000, -16.000000)">
            <g id="logo" transform="translate(23.057000, 16.133000)">
                <path d="M23.051,18.676 L18.667,18.676 L18.667,12.754 L4.384,12.796 L4.384,8.38 L18.667,8.394 L18.667,5.779 C18.667,4.833 18.352,4.361 17.717,4.361 L5.3,4.361 C4.691,4.361 4.384,4.832 4.384,5.775 L4.384,18.676 L0,18.676 L0,5.765 C0,4.194 0.495,2.84 1.479,1.704 C2.47,0.568 3.741,-1.77635684e-15 5.3,-1.77635684e-15 L17.717,-1.77635684e-15 C19.301,-1.77635684e-15 20.586,0.568 21.571,1.704 C22.555,2.84 23.051,4.194 23.051,5.765 L23.051,18.676" id="Fill-4" fill="#01132B"></path>
                <polyline id="Fill-5" fill="#01132B" points="46.839 18.676 28.026 18.676 28.026 -1.77635684e-15 32.411 -1.77635684e-15 32.411 14.316 46.839 14.316 46.839 18.676"></polyline>
                <polyline id="Fill-6" fill="#01132B" points="69.325 18.676 50.515 18.676 50.515 -1.77635684e-15 54.898 -1.77635684e-15 54.898 14.316 69.325 14.316 69.325 18.676"></polyline>
                <polyline id="Fill-7" fill="#01132B" points="88.278 4.361 79.805 4.361 79.805 18.676 75.42 18.676 75.42 4.361 66.949 4.361 66.949 -1.77635684e-15 88.278 -1.77635684e-15 88.278 4.361"></polyline>
                <path d="M91.547,0 L109.857,0 C111.54,0 112.87,0.614 113.845,1.928 C114.748,3.117 115.2,4.563 115.2,6.26 C115.2,7.957 114.748,9.403 113.845,10.59 C112.87,11.904 111.54,12.557 109.857,12.557 L108.378,12.563 L113.632,18.668 L107.646,18.672 L98.628,8.182 L109.6,8.182 C110.406,8.182 110.808,7.544 110.808,6.26 C110.808,4.975 110.406,4.329 109.6,4.329 L95.314,4.331 L91.547,0" id="Fill-8" fill="#01132B"></path>
                <path d="M141.592,12.899 C141.592,14.474 141.091,15.828 140.092,16.967 C139.095,18.108 137.816,18.676 136.258,18.676 L123.838,18.676 C122.255,18.676 120.97,18.108 119.984,16.967 C119,15.828 118.505,14.474 118.505,12.899 L118.505,-1.77635684e-15 L122.888,-1.77635684e-15 L122.888,12.899 C122.888,13.843 123.205,14.316 123.842,14.316 L136.292,14.316 C136.902,14.316 137.206,13.843 137.206,12.899 L137.206,-1.77635684e-15 L141.592,-1.77635684e-15 L141.592,12.899" id="Fill-9" fill="#01132B"></path>
                <path d="M166.087,18.676 L151.547,18.676 C149.845,18.676 148.395,18.112 147.203,16.989 C146.008,15.866 145.413,14.459 145.413,12.765 L145.413,5.912 C145.413,4.22 146.008,2.811 147.203,1.685 C148.395,0.562 149.845,-1.77635684e-15 151.547,-1.77635684e-15 L166.087,-1.77635684e-15 L166.087,4.361 L151.547,4.361 C150.381,4.361 149.796,4.88 149.796,5.919 L149.796,12.759 C149.796,13.798 150.381,14.316 151.547,14.316 L166.087,14.316 L166.087,18.676" id="Fill-10" fill="#01132B"></path>
                <polyline id="Fill-11" fill="#01132B" points="190.037 18.676 184.047 18.676 176.814 11.556 174.002 11.556 174.002 18.676 169.621 18.676 169.621 -1.77635684e-15 174.002 -1.77635684e-15 174.002 7.196 176.704 7.196 183.535 -1.77635684e-15 189.526 -1.77635684e-15 180.54 9.356 190.037 18.676"></polyline>
                <path d="M214.26,12.919 C214.26,14.485 213.784,15.826 212.834,16.938 C211.811,18.098 210.522,18.676 208.962,18.676 L192.746,18.676 L192.746,14.316 L208.962,14.316 C209.572,14.316 209.875,13.85 209.875,12.919 C209.875,11.984 209.572,11.517 208.962,11.517 L197.166,11.517 C195.607,11.517 194.314,10.936 193.294,9.772 C192.319,8.684 191.831,7.352 191.831,5.779 C191.831,4.203 192.33,2.846 193.328,1.707 C194.33,0.57 195.607,-1.77635684e-15 197.166,-1.77635684e-15 L213.383,-1.77635684e-15 L213.383,4.361 L197.129,4.361 C196.52,4.361 196.215,4.833 196.215,5.779 C196.215,6.699 196.52,7.157 197.129,7.157 L208.95,7.157 C210.515,7.157 211.804,7.74 212.834,8.895 C213.783,10.007 214.26,11.348 214.26,12.919" id="Fill-12" fill="#01132B"></path>
                <polyline id="Fill-13" fill="#00B3D2" points="114.224 31.078 94.502 8.166 88.543 8.166 108.216 31.078 114.224 31.078"></polyline>
                <polyline id="Fill-14" fill="#00B3D2" points="118.511 31.077 119.877 31.077 119.877 26.014 121.728 26.014 121.728 24.874 116.668 24.874 116.668 26.014 118.511 26.014 118.511 31.077"></polyline>
                <path d="M122.902,31.077 L124.243,31.077 L124.243,28.739 L125.03,28.739 L126.321,31.077 L127.761,31.077 L126.379,28.563 C127.209,28.31 127.669,27.772 127.669,26.793 C127.669,25.417 126.757,24.874 125.229,24.874 L122.902,24.874 L122.902,31.077 Z M124.243,27.684 L124.243,25.99 L125.173,25.99 C125.96,25.99 126.337,26.216 126.337,26.828 C126.337,27.455 125.96,27.684 125.173,27.684 L124.243,27.684 L124.243,27.684 Z" id="Fill-15" fill="#00B3D2"></path>
                <path d="M131.42,31.18 C133.148,31.18 133.917,30.223 133.917,28.697 L133.917,24.874 L132.576,24.874 L132.576,28.671 C132.576,29.578 132.241,30.071 131.438,30.071 C130.625,30.071 130.282,29.57 130.282,28.671 L130.282,24.874 L128.915,24.874 L128.915,28.705 C128.915,30.223 129.695,31.18 131.42,31.18" id="Fill-16" fill="#00B3D2"></path>
                <path d="M137.969,31.196 C139.528,31.196 140.265,30.325 140.567,29.074 L139.285,28.788 C139.067,29.636 138.707,30.097 137.977,30.097 C137.039,30.097 136.52,29.275 136.52,27.968 C136.52,26.685 137.025,25.887 137.96,25.887 C138.69,25.887 138.991,26.374 139.192,27.088 L140.482,26.709 C140.215,25.595 139.534,24.755 137.969,24.755 C136.402,24.755 135.156,25.814 135.156,27.968 C135.156,30.156 136.352,31.196 137.969,31.196" id="Fill-17" fill="#00B3D2"></path>
                <polyline id="Fill-18" fill="#00B3D2" points="141.904 31.077 143.269 31.077 143.269 29.092 143.949 28.328 145.616 31.077 147.159 31.077 144.838 27.296 146.94 24.874 145.347 24.874 143.269 27.437 143.269 24.874 141.904 24.874 141.904 31.077"></polyline>
                <path d="M152.021,31.256 C152.741,31.256 153.312,31.062 153.773,30.743 C154.333,31.062 154.946,31.213 155.749,31.223 L155.749,30.122 C155.33,30.122 154.963,30.041 154.61,29.848 C154.963,29.278 155.154,28.597 155.245,27.946 L154.099,27.946 C154.04,28.437 153.906,28.858 153.705,29.2 C153.496,28.999 153.268,28.74 153.027,28.437 C152.893,28.272 152.759,28.11 152.649,27.953 C153.403,27.574 154.081,27.105 154.081,26.174 C154.081,25.477 153.605,24.815 152.472,24.815 C151.26,24.815 150.713,25.572 150.713,26.385 C150.713,26.827 150.866,27.283 151.11,27.753 C150.354,28.11 149.684,28.597 149.684,29.603 C149.684,30.609 150.482,31.256 152.021,31.256 Z M152.221,27.24 C152.047,26.911 151.954,26.611 151.954,26.309 C151.954,25.898 152.196,25.697 152.5,25.697 C152.843,25.697 152.959,25.974 152.959,26.224 C152.959,26.694 152.649,26.997 152.221,27.24 Z M152.031,30.316 C151.443,30.316 151.051,29.988 151.051,29.411 C151.051,29.05 151.26,28.765 151.595,28.539 C151.727,28.724 151.878,28.923 152.031,29.116 C152.33,29.495 152.609,29.815 152.877,30.074 C152.625,30.234 152.34,30.316 152.031,30.316 L152.031,30.316 Z" id="Fill-19" fill="#00B3D2"></path>
                <polyline id="Fill-20" fill="#00B3D2" points="159.744 31.077 161.109 31.077 161.109 26.015 162.961 26.015 162.961 24.875 157.9 24.875 157.9 26.015 159.744 26.015 159.744 31.077"></polyline>
                <path d="M164.175,31.077 L165.514,31.077 L165.514,28.739 L166.303,28.739 L167.593,31.077 L169.033,31.077 L167.651,28.564 C168.479,28.31 168.941,27.774 168.941,26.794 C168.941,25.418 168.027,24.875 166.505,24.875 L164.175,24.875 L164.175,31.077 Z M165.514,27.686 L165.514,25.991 L166.445,25.991 C167.233,25.991 167.609,26.217 167.609,26.828 C167.609,27.456 167.233,27.686 166.445,27.686 L165.514,27.686 L165.514,27.686 Z" id="Fill-21" fill="#00B3D2"></path>
                <path d="M169.824,31.077 L171.081,31.077 L171.557,29.697 L173.67,29.697 L174.129,31.077 L175.512,31.077 L173.318,24.851 L172.018,24.851 L169.824,31.077 Z M171.893,28.706 L172.621,26.595 L172.639,26.595 L173.35,28.706 L171.893,28.706 L171.893,28.706 Z" id="Fill-22" fill="#00B3D2"></path>
                <polygon id="Fill-23" fill="#00B3D2" points="176.747 31.077 178.104 31.077 178.104 24.875 176.747 24.875"></polygon>
                <polyline id="Fill-24" fill="#00B3D2" points="179.773 31.077 183.869 31.077 183.869 29.974 181.137 29.974 181.137 24.875 179.773 24.875 179.773 31.077"></polyline>
                <polyline id="Fill-25" fill="#00B3D2" points="185.035 31.077 189.409 31.077 189.409 29.974 186.402 29.974 186.402 28.432 188.47 28.432 188.47 27.349 186.402 27.349 186.402 26.015 189.259 26.015 189.259 24.875 185.035 24.875 185.035 31.077"></polyline>
                <path d="M190.681,31.077 L192.021,31.077 L192.021,28.739 L192.809,28.739 L194.099,31.077 L195.542,31.077 L194.159,28.564 C194.988,28.31 195.448,27.774 195.448,26.794 C195.448,25.418 194.535,24.875 193.011,24.875 L190.681,24.875 L190.681,31.077 Z M192.021,27.686 L192.021,25.991 L192.952,25.991 C193.738,25.991 194.116,26.217 194.116,26.828 C194.116,27.456 193.738,27.686 192.952,27.686 L192.021,27.686 L192.021,27.686 Z" id="Fill-26" fill="#00B3D2"></path>
                <path d="M201.858,31.185 C203.581,31.185 204.337,30.295 204.337,29.299 C204.337,28.016 203.181,27.673 202.092,27.378 C201.277,27.153 200.818,26.974 200.818,26.483 C200.818,26.112 201.136,25.86 201.716,25.86 C202.317,25.86 202.913,26.213 203.239,26.742 L204.186,26.018 C203.751,25.356 202.995,24.744 201.725,24.744 C200.392,24.744 199.487,25.44 199.487,26.599 C199.487,27.898 200.643,28.183 201.749,28.494 C202.56,28.718 203.006,28.919 203.006,29.39 C203.006,29.867 202.554,30.104 201.923,30.104 C201.214,30.104 200.593,29.725 200.251,29.046 L199.217,29.658 C199.679,30.546 200.517,31.185 201.858,31.185" id="Fill-27" fill="#00B3D2"></path>
                <polyline id="Fill-28" fill="#00B3D2" points="205.708 31.065 210.076 31.065 210.076 29.96 207.072 29.96 207.072 28.418 209.139 28.418 209.139 27.337 207.072 27.337 207.072 26.004 209.93 26.004 209.93 24.865 205.708 24.865 205.708 31.065"></polyline>
                <path d="M211.402,31.065 L212.741,31.065 L212.741,28.726 L213.53,28.726 L214.823,31.065 L216.261,31.065 L214.878,28.551 C215.708,28.3 216.171,27.763 216.171,26.781 C216.171,25.409 215.255,24.865 213.732,24.865 L211.402,24.865 L211.402,31.065 Z M212.741,27.673 L212.741,25.977 L213.671,25.977 C214.461,25.977 214.836,26.205 214.836,26.817 C214.836,27.444 214.461,27.673 213.671,27.673 L212.741,27.673 L212.741,27.673 Z" id="Fill-29" fill="#00B3D2"></path>
                <polyline id="Fill-30" fill="#00B3D2" points="219.104 31.078 220.395 31.078 222.533 24.85 221.248 24.85 219.783 29.285 219.766 29.285 218.352 24.85 216.969 24.85 219.104 31.078"></polyline>
                <polygon id="Fill-31" fill="#00B3D2" points="223.711 31.066 225.072 31.066 225.072 24.865 223.711 24.865"></polygon>
                <path d="M229.279,31.185 C230.84,31.185 231.576,30.315 231.877,29.062 L230.595,28.778 C230.376,29.624 230.019,30.085 229.288,30.085 C228.352,30.085 227.832,29.263 227.832,27.958 C227.832,26.674 228.332,25.877 229.271,25.877 C230.001,25.877 230.302,26.362 230.503,27.076 L231.796,26.698 C231.525,25.583 230.847,24.744 229.279,24.744 C227.715,24.744 226.464,25.805 226.464,27.958 C226.464,30.143 227.662,31.185 229.279,31.185" id="Fill-32" fill="#00B3D2"></path>
                <polyline id="Fill-33" fill="#00B3D2" points="233.202 31.065 237.577 31.065 237.577 29.96 234.569 29.96 234.569 28.418 236.637 28.418 236.637 27.337 234.569 27.337 234.569 26.004 237.423 26.004 237.423 24.865 233.202 24.865 233.202 31.065"></polyline>
            </g>
        </g>
    </g>
</svg>