<?xml version="1.0" encoding="UTF-8" standalone="no"?>
<!-- Created with Inkscape (http://www.inkscape.org/) -->

<svg
   version="1.1"
   id="svg2"
   width="430.93332"
   height="63.133331"
   viewBox="0 0 430.93332 63.133331"
   sodipodi:docname="AT_Logo-AmCat_CMYK_01.eps"
   xmlns:inkscape="http://www.inkscape.org/namespaces/inkscape"
   xmlns:sodipodi="http://sodipodi.sourceforge.net/DTD/sodipodi-0.dtd"
   xmlns="http://www.w3.org/2000/svg"
   xmlns:svg="http://www.w3.org/2000/svg">
  <defs
     id="defs6" />
  <sodipodi:namedview
     id="namedview4"
     pagecolor="#ffffff"
     bordercolor="#000000"
     borderopacity="0.25"
     inkscape:showpageshadow="2"
     inkscape:pageopacity="0.0"
     inkscape:pagecheckerboard="0"
     inkscape:deskcolor="#d1d1d1" />
  <g
     id="g8"
     inkscape:groupmode="layer"
     inkscape:label="ink_ext_XXXXXX"
     transform="matrix(1.3333333,0,0,-1.3333333,0,63.133333)">
    <g
       id="g10"
       transform="scale(0.1)">
      <path
         d="M 1977.94,-0.195313 H 1612 c -42.85,0 -79.32,15.738313 -109.34,44.023413 -30.06,28.25 -45.05,63.6519 -45.05,106.3089 v 172.472 c 0,42.582 14.99,78.028 45.05,106.371 30.02,28.282 66.53,43.606 109.37,43.606 h 365.91 V 362.227 H 1612 c -29.34,0 -44.07,-13.637 -44.07,-39.793 V 150.273 c 0,-26.144 14.73,-40.246 44.07,-40.246 h 365.94 V -0.195313"
         style="fill:#40c1e6;fill-opacity:1;fill-rule:nonzero;stroke:none"
         id="path12" />
      <path
         d="M 3231.99,362.227 H 3018.75 V -0.195313 H 2908.39 V 362.227 h -213.22 v 110.359 h 536.82 V 362.227"
         style="fill:#40c1e6;fill-opacity:1;fill-rule:nonzero;stroke:none"
         id="path14" />
      <path
         d="M 648.688,-0.195313 V 318.195 c 0,42.852 14.796,79.325 43.082,109.344 28.25,30.059 63.652,45.047 106.308,45.047 h 127.18 c 42.582,0 78.022,-14.988 106.372,-45.047 28.28,-30.019 42.41,-66.496 42.41,-109.344 V 2.16406 H 964.277 L 963.684,318.195 c 0,29.348 -12.446,44.075 -38.606,44.075 H 798.215 c -26.145,0 -39.188,-14.735 -39.188,-44.075 V -0.195313 H 648.688"
         style="fill:#0b1a35;fill-opacity:1;fill-rule:nonzero;stroke:none"
         id="path16" />
      <path
         d="M 963.684,-0.195313 V 318.195 c 0,42.852 14.832,79.325 43.116,109.344 28.25,30.059 63.65,45.047 106.31,45.047 h 127.18 c 42.58,0 78.02,-14.988 106.37,-45.047 28.28,-30.019 42.41,-66.496 42.41,-109.344 V -0.195313 H 1279.31 V 318.195 c 0,29.34 -13.04,44.075 -39.2,44.075 h -126.87 c -26.14,0 -39.18,-14.735 -39.18,-44.075 V -0.195313 H 963.684"
         style="fill:#0b1a35;fill-opacity:1;fill-rule:nonzero;stroke:none"
         id="path18" />
      <path
         d="m 2516.3,145.699 c 0,-23.797 -7.93,-35.672 -23.92,-35.672 h -312.51 c -15.33,0 -23.04,11.852 -23.04,35.571 v 0.746 c 0,23.715 8.15,33.609 23.48,33.609 h 312.51 c 15.98,0 23.48,-9.918 23.48,-33.715 z m 96.52,65.528 c -5.98,13.336 -13.43,26.019 -23.43,37.566 -24.8,28.582 -56.72,41.52 -96.57,41.52 h -312.51 c -39.23,0 -71.67,-12.938 -96.59,-41.52 -24.77,-28.598 -37.24,-62.664 -37.24,-102.227 0,-39.558 12.47,-74.8277 37.24,-103.4215 24.92,-28.582 56.92,-42.878875 96.15,-42.878875 h 312.51 c 39.86,0 72.21,14.296875 97.01,42.878875 24.77,28.5938 37.24,62.6645 37.24,102.2265 v 65.856 h -13.81"
         style="fill:#40c1e6;fill-opacity:1;fill-rule:nonzero;stroke:none"
         id="path20" />
      <path
         d="m 2179.87,110.027 h 292.45 c 29.34,0 43.99,-6.82 43.99,19.321 v 172.164 c 0,26.156 -12.44,60.715 -41.78,60.715 h -386.24 v 110.359 h 386.24 c 49.45,0 79.33,-14.137 109.34,-42.418 30.07,-28.34 42.76,-85.898 42.76,-128.48 V 129.215 c 0,-42.6564 -14.99,-78.0587 -45.05,-106.3087 C 2551.57,-5.37891 2504.09,0.265625 2461.24,0.265625 H 2179.87 V 110.027"
         style="fill:#40c1e6;fill-opacity:1;fill-rule:nonzero;stroke:none"
         id="path22" />
      <path
         d="M 580.148,-0.195313 H 469.816 V 151.609 l -359.468,-1.062 v 111.141 l 359.468,-0.375 v 65.835 c 0,23.797 -7.925,35.672 -23.914,35.672 H 133.391 c -15.328,0 -23.043,-11.847 -23.043,-35.566 L 110.348,0 H 0 v 327.48 c 0,39.559 12.4727,73.629 37.2422,102.227 24.9141,28.582 56.9219,42.879 96.1488,42.879 h 312.511 c 39.86,0 72.207,-14.297 97.008,-42.879 24.766,-28.598 37.238,-62.668 37.238,-102.227 V -0.195313"
         style="fill:#0b1a35;fill-opacity:1;fill-rule:nonzero;stroke:none"
         id="path24" />
    </g>
  </g>
</svg>
