<?xml version="1.0" encoding="UTF-8" standalone="no"?>
<!-- Created with Inkscape (http://www.inkscape.org/) -->

<svg
   version="1.1"
   id="svg2"
   width="377.14667"
   height="377.20001"
   viewBox="0 0 377.14667 377.20001"
   sodipodi:docname="AT_Logo+App-AmCat_CMYK_02.eps"
   xmlns:inkscape="http://www.inkscape.org/namespaces/inkscape"
   xmlns:sodipodi="http://sodipodi.sourceforge.net/DTD/sodipodi-0.dtd"
   xmlns="http://www.w3.org/2000/svg"
   xmlns:svg="http://www.w3.org/2000/svg">
  <defs
     id="defs6" />
  <sodipodi:namedview
     id="namedview4"
     pagecolor="#ffffff"
     bordercolor="#000000"
     borderopacity="0.25"
     inkscape:showpageshadow="2"
     inkscape:pageopacity="0.0"
     inkscape:pagecheckerboard="0"
     inkscape:deskcolor="#d1d1d1" />
  <g
     id="g8"
     inkscape:groupmode="layer"
     inkscape:label="ink_ext_XXXXXX"
     transform="matrix(1.3333333,0,0,-1.3333333,0,377.2)">
    <g
       id="g10"
       transform="scale(0.1)">
      <path
         d="M 2358.16,0.480469 H 470.398 C 210.605,0.480469 0,211.09 0,470.879 V 2358.64 c 0,259.8 210.605,470.4 470.398,470.4 H 2358.16 c 259.79,0 470.4,-210.6 470.4,-470.4 V 470.879 C 2828.56,211.09 2617.95,0.480469 2358.16,0.480469"
         style="fill:#0b1a35;fill-opacity:1;fill-rule:nonzero;stroke:none"
         id="path12" />
      <path
         d="M 1451.29,2108.59 332.871,1829.54 c -38.418,-9.59 -39.629,-56.2 -1.742,-67.26 l 1120.161,-326.99 1120.16,326.99 c 37.89,11.06 36.68,57.67 -1.74,67.26 l -1118.42,279.05"
         style="fill:#40c1e6;fill-opacity:1;fill-rule:nonzero;stroke:none"
         id="path14" />
      <path
         d="m 327.344,1669.81 v -370 l 93.808,0.01 v 342.57 l -93.808,27.42"
         style="fill:#40c1e6;fill-opacity:1;fill-rule:nonzero;stroke:none"
         id="path16" />
      <path
         d="m 519.145,1243.25 -144.899,-144.9 -144.894,144.9 144.894,144.89 144.899,-144.89"
         style="fill:#40c1e6;fill-opacity:1;fill-rule:nonzero;stroke:none"
         id="path18" />
      <path
         d="m 743.438,2023.44 85.179,423.35 c 2.957,14.7 21.125,20.16 31.696,9.51 L 1171.27,2130.18 743.438,2023.44"
         style="fill:#40c1e6;fill-opacity:1;fill-rule:nonzero;stroke:none"
         id="path20" />
      <path
         d="m 2161.89,2023.43 -85.18,423.34 c -2.96,14.71 -21.13,20.16 -31.7,9.52 l -310.96,-326.13 427.84,-106.73"
         style="fill:#40c1e6;fill-opacity:1;fill-rule:nonzero;stroke:none"
         id="path22" />
      <path
         d="m 1451.29,1341.49 -709.224,207.07 v -429.2 C 947.57,990.129 1190.61,915.109 1451.29,915.109 c 260.69,0 503.72,75.02 709.22,204.251 v 429.26 l -709.22,-207.13"
         style="fill:#40c1e6;fill-opacity:1;fill-rule:nonzero;stroke:none"
         id="path24" />
      <path
         d="m 1703.02,367.672 h -254.51 c -29.8,0 -55.17,10.937 -76.05,30.609 -20.91,19.649 -31.33,44.278 -31.33,73.938 V 592.18 c 0,29.621 10.42,54.269 31.33,73.98 20.88,19.672 46.27,30.328 76.07,30.328 h 254.49 V 619.73 h -254.51 c -20.41,0 -30.65,-9.48 -30.65,-27.671 V 472.32 c 0,-18.191 10.24,-27.988 30.65,-27.988 h 254.51 v -76.66"
         style="fill:#40c1e6;fill-opacity:1;fill-rule:nonzero;stroke:none"
         id="path26" />
      <path
         d="M 2575.24,619.73 H 2426.92 V 367.672 h -76.75 V 619.73 h -148.3 v 76.758 h 373.37 V 619.73"
         style="fill:#40c1e6;fill-opacity:1;fill-rule:nonzero;stroke:none"
         id="path28" />
      <path
         d="m 778.516,367.672 v 221.437 c 0,29.801 10.289,55.172 29.961,76.051 19.652,20.91 44.273,31.328 73.941,31.328 h 88.453 c 29.619,0 54.269,-10.418 73.979,-31.328 19.67,-20.879 29.5,-46.25 29.5,-76.051 v -219.8 h -76.338 l -0.414,219.8 c 0,20.411 -8.657,30.653 -26.852,30.653 h -88.234 c -18.184,0 -27.254,-10.242 -27.254,-30.653 V 367.672 h -76.742"
         style="fill:#ffffff;fill-opacity:1;fill-rule:nonzero;stroke:none"
         id="path30" />
      <path
         d="m 997.598,367.672 v 221.437 c 0,29.801 10.312,55.172 29.992,76.051 19.64,20.91 44.27,31.328 73.93,31.328 h 88.46 c 29.62,0 54.27,-10.418 73.98,-31.328 19.67,-20.879 29.5,-46.25 29.5,-76.051 V 367.672 h -76.34 v 221.437 c 0,20.411 -9.07,30.653 -27.27,30.653 h -88.23 c -18.18,0 -27.26,-10.242 -27.26,-30.653 V 367.672 h -76.762"
         style="fill:#ffffff;fill-opacity:1;fill-rule:nonzero;stroke:none"
         id="path32" />
      <path
         d="m 2077.46,469.141 c 0,-16.551 -5.51,-24.809 -16.63,-24.809 h -217.36 c -10.66,0 -16.03,8.238 -16.03,24.738 v 0.512 c 0,16.5 5.67,23.379 16.34,23.379 h 217.35 c 11.12,0 16.33,-6.902 16.33,-23.449 z m 67.14,45.57 c -4.16,9.277 -9.34,18.098 -16.3,26.129 -17.25,19.879 -39.45,28.879 -67.17,28.879 h -217.35 c -27.29,0 -49.85,-9 -67.18,-28.879 -17.23,-19.891 -25.9,-43.578 -25.9,-71.098 0,-27.512 8.67,-52.043 25.9,-71.933 17.33,-19.879 39.59,-29.821 66.87,-29.821 h 217.36 c 27.72,0 50.22,9.942 67.47,29.821 17.22,19.89 25.9,43.582 25.9,71.101 v 45.801 h -9.6"
         style="fill:#40c1e6;fill-opacity:1;fill-rule:nonzero;stroke:none"
         id="path34" />
      <path
         d="m 1843.47,444.332 h 203.4 c 20.41,0 30.6,-4.75 30.6,13.438 v 119.742 c 0,18.187 -8.65,42.218 -29.06,42.218 h -268.63 v 76.758 h 268.63 c 34.39,0 55.17,-9.828 76.05,-29.5 20.91,-19.707 29.74,-59.738 29.74,-89.359 V 457.672 c 0,-29.672 -10.42,-54.293 -31.33,-73.942 -20.88,-19.671 -53.9,-15.742 -83.7,-15.742 h -195.7 v 76.344"
         style="fill:#40c1e6;fill-opacity:1;fill-rule:nonzero;stroke:none"
         id="path36" />
      <path
         d="M 730.844,367.801 H 654.105 V 471.469 L 404.09,470.73 v 77.301 l 250.015,-0.261 v 45.789 c 0,16.55 -5.511,24.812 -16.628,24.812 h -217.36 c -10.66,0 -16.027,-8.242 -16.027,-24.742 V 367.801 h -76.746 v 225.988 c 0,27.52 8.676,51.211 25.898,71.102 17.332,19.879 39.594,29.82 66.875,29.82 h 217.36 c 27.718,0 50.218,-9.941 67.468,-29.82 17.227,-19.891 25.899,-43.582 25.899,-71.102 V 367.801"
         style="fill:#ffffff;fill-opacity:1;fill-rule:nonzero;stroke:none"
         id="path38" />
    </g>
  </g>
</svg>
