<svg width="653" height="129" viewBox="0 0 653 129" fill="none" xmlns="http://www.w3.org/2000/svg">
<path d="M101.337 29.2973L8.58469 52.4396C5.39883 53.2349 5.29829 57.1 8.44043 58.0172L101.337 85.1344L194.233 58.0172C197.375 57.1 197.275 53.2349 194.089 52.4396L101.337 29.2973Z" fill="#40C1E6"/>
<path d="M8.12646 65.6854V96.3707L15.9061 96.3702V67.9603L8.12646 65.6854Z" fill="#40C1E6"/>
<path d="M24.0328 101.061L12.0161 113.078L0 101.061L12.0161 89.0447L24.0328 101.061Z" fill="#40C1E6"/>
<path d="M42.6338 36.3588L49.6978 1.25077C49.9431 0.0307672 51.4494 -0.422572 52.3265 0.461428L78.1141 27.5073L42.6338 36.3588Z" fill="#40C1E6"/>
<path d="M160.267 36.3599L153.203 1.25213C152.958 0.0321344 151.451 -0.421206 150.575 0.46146L124.786 27.5083L160.267 36.3599Z" fill="#40C1E6"/>
<path d="M101.337 92.9145L42.5198 75.7416V111.336C59.563 122.052 79.7182 128.273 101.337 128.273C122.956 128.273 143.112 122.052 160.154 111.336V75.7364L101.337 92.9145Z" fill="#40C1E6"/>
<path d="M484.807 95.5823H435.866C430.135 95.5823 425.255 93.4776 421.241 89.6948C417.221 85.9161 415.217 81.1812 415.217 75.476V52.4088C415.217 46.7135 417.221 41.9729 421.241 38.1823C425.255 34.4 430.139 32.35 435.87 32.35H484.807V47.1104H435.866C431.941 47.1104 429.971 48.9339 429.971 52.4323V75.4583C429.971 78.9547 431.941 80.8407 435.866 80.8407H484.807V95.5823Z" fill="#40C1E6"/>
<path d="M652.533 47.1104H624.013V95.5823H609.251V47.1104H580.735V32.35H652.533V47.1104Z" fill="#40C1E6"/>
<path d="M307.026 95.5823V52.9989C307.026 47.2683 309.005 42.3896 312.787 38.3749C316.566 34.3547 321.302 32.35 327.006 32.35H344.015C349.711 32.35 354.451 34.3547 358.242 38.3749C362.025 42.3896 363.915 47.2688 363.915 52.9995V95.2672H349.235L349.155 52.9989C349.155 49.0744 347.491 47.1047 343.993 47.1047H327.025C323.527 47.1047 321.783 49.0749 321.783 52.9995V95.5823H307.026Z" fill="white"/>
<path d="M349.156 95.5823V52.9989C349.156 47.2683 351.14 42.3896 354.922 38.3749C358.701 34.3547 363.436 32.35 369.141 32.35H386.15C391.845 32.35 396.586 34.3547 400.377 38.3749C404.16 42.3896 406.05 47.2688 406.05 52.9995V95.5823H391.369V52.9995C391.369 49.0749 389.625 47.1047 386.126 47.1047H369.158C365.662 47.1047 363.918 49.0749 363.918 52.9995V95.5823H349.156Z" fill="white"/>
<path d="M556.812 76.0697C556.812 79.2525 555.752 80.8406 553.613 80.8406H511.816C509.766 80.8406 508.734 79.2557 508.734 76.0838V75.9838C508.734 72.8114 509.824 71.4885 511.874 71.4885H553.672C555.809 71.4885 556.812 72.815 556.812 75.9978V76.0697ZM569.721 67.3057C568.922 65.5223 567.926 63.8259 566.588 62.2811C563.27 58.4587 559.002 56.7281 553.672 56.7281H511.874C506.628 56.7281 502.29 58.4587 498.956 62.2811C495.644 66.1062 493.976 70.6625 493.976 75.9536C493.976 81.2448 495.644 85.9614 498.956 89.7858C502.29 93.6088 506.569 95.5208 511.816 95.5208H553.613C558.944 95.5208 563.27 93.6088 566.588 89.7858C569.9 85.9614 571.568 81.4046 571.568 76.114V67.3057H569.721Z" fill="#40C1E6"/>
<path d="M511.815 80.8406H550.929C554.854 80.8406 556.814 81.753 556.814 78.2567V55.2306C556.814 51.7322 555.15 47.1103 551.226 47.1103H499.567V32.3499H551.226C557.838 32.3499 561.835 34.2406 565.85 38.0229C569.87 41.8134 571.569 49.5119 571.569 55.2073V78.2743C571.569 83.9797 569.563 88.7145 565.543 92.4926C561.529 96.2759 555.178 95.5213 549.447 95.5213L511.815 95.5207V80.8406Z" fill="#40C1E6"/>
<path d="M297.859 95.5568H283.102V75.6208L235.025 75.763V60.8984L283.102 60.9484V52.1432C283.102 48.9604 282.042 47.3724 279.905 47.3724H238.107C236.057 47.3724 235.025 48.9568 235.025 52.1292V95.5568H220.266V52.0989C220.266 46.8077 221.935 42.2516 225.247 38.4265C228.579 34.6041 232.861 32.6916 238.107 32.6916H279.905C285.235 32.6916 289.562 34.6041 292.878 38.4265C296.191 42.2516 297.859 46.8077 297.859 52.0989V95.5568Z" fill="white"/>
</svg>
