<?xml version="1.0" encoding="UTF-8" standalone="no"?>
<!-- Created with Inkscape (http://www.inkscape.org/) -->

<svg
   version="1.1"
   id="svg2"
   width="377.14667"
   height="377.42667"
   viewBox="0 0 377.14667 377.42667"
   sodipodi:docname="AT_Logo+App-AmCat_CMYK_01.eps"
   xmlns:inkscape="http://www.inkscape.org/namespaces/inkscape"
   xmlns:sodipodi="http://sodipodi.sourceforge.net/DTD/sodipodi-0.dtd"
   xmlns="http://www.w3.org/2000/svg"
   xmlns:svg="http://www.w3.org/2000/svg">
  <defs
     id="defs6" />
  <sodipodi:namedview
     id="namedview4"
     pagecolor="#ffffff"
     bordercolor="#000000"
     borderopacity="0.25"
     inkscape:showpageshadow="2"
     inkscape:pageopacity="0.0"
     inkscape:pagecheckerboard="0"
     inkscape:deskcolor="#d1d1d1" />
  <g
     id="g8"
     inkscape:groupmode="layer"
     inkscape:label="ink_ext_XXXXXX"
     transform="matrix(1.3333333,0,0,-1.3333333,0,377.42667)">
    <g
       id="g10"
       transform="scale(0.1)">
      <path
         d="M 2358.16,2.17188 H 470.398 C 210.605,2.17188 0,212.781 0,472.57 v 1887.76 c 0,259.8 210.605,470.4 470.398,470.4 H 2358.16 c 259.79,0 470.4,-210.6 470.4,-470.4 V 472.57 c 0,-259.789 -210.61,-470.39812 -470.4,-470.39812"
         style="fill:#40c1e6;fill-opacity:1;fill-rule:nonzero;stroke:none"
         id="path12" />
      <path
         d="M 1451.29,2110.28 332.871,1831.22 c -38.418,-9.58 -39.629,-56.19 -1.742,-67.25 l 1120.161,-326.99 1120.16,326.99 c 37.89,11.06 36.68,57.67 -1.74,67.25 l -1118.42,279.06"
         style="fill:#ffffff;fill-opacity:1;fill-rule:nonzero;stroke:none"
         id="path14" />
      <path
         d="m 327.344,1671.5 v -370 l 93.808,0.01 v 342.57 l -93.808,27.42"
         style="fill:#ffffff;fill-opacity:1;fill-rule:nonzero;stroke:none"
         id="path16" />
      <path
         d="m 519.145,1244.94 -144.899,-144.9 -144.894,144.9 144.894,144.89 144.899,-144.89"
         style="fill:#ffffff;fill-opacity:1;fill-rule:nonzero;stroke:none"
         id="path18" />
      <path
         d="m 743.438,2025.13 85.179,423.34 c 2.957,14.71 21.125,20.17 31.696,9.53 L 1171.27,2131.87 743.438,2025.13"
         style="fill:#ffffff;fill-opacity:1;fill-rule:nonzero;stroke:none"
         id="path20" />
      <path
         d="m 2161.89,2025.12 -85.18,423.34 c -2.96,14.7 -21.12,20.16 -31.7,9.52 l -310.96,-326.13 427.84,-106.73"
         style="fill:#ffffff;fill-opacity:1;fill-rule:nonzero;stroke:none"
         id="path22" />
      <path
         d="m 1451.29,1343.18 -709.224,207.07 v -429.2 C 947.57,991.82 1190.61,916.801 1451.29,916.801 c 260.69,0 503.72,75.019 709.22,204.249 v 429.26 l -709.22,-207.13"
         style="fill:#ffffff;fill-opacity:1;fill-rule:nonzero;stroke:none"
         id="path24" />
      <path
         d="m 1703.02,369.359 h -254.51 c -29.8,0 -55.17,10.942 -76.05,30.61 -20.91,19.652 -31.33,44.281 -31.33,73.941 v 119.961 c 0,29.617 10.42,54.27 31.33,73.981 20.88,19.668 46.27,30.328 76.07,30.328 h 254.49 v -76.758 h -254.51 c -20.41,0 -30.65,-9.481 -30.65,-27.672 V 474.012 c 0,-18.192 10.24,-27.992 30.65,-27.992 h 254.51 v -76.661"
         style="fill:#ffffff;fill-opacity:1;fill-rule:nonzero;stroke:none"
         id="path26" />
      <path
         d="M 2575.24,621.422 H 2426.92 V 369.359 h -76.75 v 252.063 h -148.3 v 76.758 h 373.37 v -76.758"
         style="fill:#ffffff;fill-opacity:1;fill-rule:nonzero;stroke:none"
         id="path28" />
      <path
         d="m 778.516,369.359 v 221.442 c 0,29.801 10.293,55.168 29.961,76.051 19.652,20.91 44.273,31.328 73.941,31.328 h 88.453 c 29.619,0 54.269,-10.418 73.979,-31.328 19.67,-20.883 29.5,-46.25 29.5,-76.051 V 371 h -76.338 l -0.414,219.801 c 0,20.41 -8.657,30.648 -26.852,30.648 h -88.234 c -18.184,0 -27.254,-10.238 -27.254,-30.648 V 369.359 h -76.742"
         style="fill:#0b1a35;fill-opacity:1;fill-rule:nonzero;stroke:none"
         id="path30" />
      <path
         d="m 997.598,369.359 v 221.442 c 0,29.801 10.312,55.168 29.992,76.051 19.64,20.91 44.27,31.328 73.93,31.328 h 88.46 c 29.61,0 54.27,-10.418 73.98,-31.328 19.67,-20.883 29.5,-46.25 29.5,-76.051 V 369.359 h -76.34 v 221.442 c 0,20.41 -9.07,30.648 -27.27,30.648 h -88.23 c -18.18,0 -27.26,-10.238 -27.26,-30.648 V 369.359 h -76.762"
         style="fill:#0b1a35;fill-opacity:1;fill-rule:nonzero;stroke:none"
         id="path32" />
      <path
         d="m 2077.46,470.828 c 0,-16.547 -5.51,-24.808 -16.63,-24.808 h -217.36 c -10.66,0 -16.03,8.242 -16.03,24.742 v 0.508 c 0,16.5 5.67,23.378 16.34,23.378 h 217.35 c 11.12,0 16.33,-6.898 16.33,-23.449 z m 67.14,45.57 c -4.16,9.282 -9.34,18.102 -16.3,26.133 -17.25,19.879 -39.45,28.879 -67.17,28.879 h -217.35 c -27.29,0 -49.85,-9 -67.18,-28.879 -17.23,-19.89 -25.9,-43.59 -25.9,-71.101 0,-27.508 8.67,-52.039 25.9,-71.93 17.33,-19.879 39.59,-29.82 66.87,-29.82 h 217.36 c 27.72,0 50.22,9.941 67.47,29.82 17.22,19.891 25.9,43.582 25.9,71.102 v 45.796 h -9.6"
         style="fill:#ffffff;fill-opacity:1;fill-rule:nonzero;stroke:none"
         id="path34" />
      <path
         d="m 1843.47,446.02 h 203.4 c 20.41,0 30.6,-4.75 30.6,13.429 v 119.742 c 0,18.2 -8.65,42.231 -29.06,42.231 h -268.63 v 76.758 h 268.63 c 34.39,0 55.17,-9.828 76.05,-29.5 20.91,-19.711 29.74,-59.75 29.74,-89.36 V 459.359 c 0,-29.668 -10.42,-54.289 -31.33,-73.937 -20.88,-19.672 -53.9,-15.75 -83.7,-15.75 l -195.7,0.008 v 76.34"
         style="fill:#ffffff;fill-opacity:1;fill-rule:nonzero;stroke:none"
         id="path36" />
      <path
         d="M 730.844,369.488 H 654.105 V 473.16 L 404.09,472.422 v 77.297 l 250.015,-0.258 v 45.789 c 0,16.551 -5.511,24.809 -16.628,24.809 h -217.36 c -10.66,0 -16.027,-8.239 -16.027,-24.739 V 369.488 H 327.344 V 595.48 c 0,27.52 8.676,51.211 25.898,71.102 17.332,19.879 39.594,29.816 66.875,29.816 h 217.36 c 27.718,0 50.218,-9.937 67.468,-29.816 C 722.172,646.691 730.844,623 730.844,595.48 V 369.488"
         style="fill:#0b1a35;fill-opacity:1;fill-rule:nonzero;stroke:none"
         id="path38" />
    </g>
  </g>
</svg>
