<?xml version="1.0" encoding="UTF-8" standalone="no"?>
<!-- Created with Inkscape (http://www.inkscape.org/) -->

<svg
   version="1.1"
   id="svg2"
   width="672.76001"
   height="141.92"
   viewBox="0 0 672.76001 141.92"
   sodipodi:docname="AT_Logo+Signet-AmCat_CMYK_01.eps"
   xmlns:inkscape="http://www.inkscape.org/namespaces/inkscape"
   xmlns:sodipodi="http://sodipodi.sourceforge.net/DTD/sodipodi-0.dtd"
   xmlns="http://www.w3.org/2000/svg"
   xmlns:svg="http://www.w3.org/2000/svg">
  <defs
     id="defs6" />
  <sodipodi:namedview
     id="namedview4"
     pagecolor="#ffffff"
     bordercolor="#000000"
     borderopacity="0.25"
     inkscape:showpageshadow="2"
     inkscape:pageopacity="0.0"
     inkscape:pagecheckerboard="0"
     inkscape:deskcolor="#d1d1d1" />
  <g
     id="g8"
     inkscape:groupmode="layer"
     inkscape:label="ink_ext_XXXXXX"
     transform="matrix(1.3333333,0,0,-1.3333333,0,141.92)">
    <g
       id="g10"
       transform="scale(0.1)">
      <path
         d="m 3780.17,140.551 h -369.28 c -43.24,0 -80.05,15.883 -110.34,44.426 -30.34,28.507 -45.46,64.234 -45.46,107.281 v 174.047 c 0,42.972 15.12,78.742 45.46,107.34 30.29,28.543 67.13,44.007 110.37,44.007 h 369.25 V 506.281 h -369.28 c -29.61,0 -44.47,-13.758 -44.47,-40.156 v -173.73 c 0,-26.383 14.86,-40.614 44.47,-40.614 h 369.28 v -111.23"
         style="fill:#40c1e6;fill-opacity:1;fill-rule:nonzero;stroke:none"
         id="path12" />
      <path
         d="m 5045.68,506.281 h -215.19 v -365.73 h -111.37 v 365.73 h -215.17 v 111.371 h 541.73 V 506.281"
         style="fill:#40c1e6;fill-opacity:1;fill-rule:nonzero;stroke:none"
         id="path14" />
      <path
         d="m 2438.78,140.551 v 321.301 c 0,43.238 14.93,80.046 43.47,110.339 28.51,30.336 64.24,45.461 107.28,45.461 h 128.34 c 42.97,0 78.74,-15.125 107.34,-45.461 28.54,-30.293 42.81,-67.101 42.81,-110.343 V 142.934 h -110.77 l -0.6,318.918 c 0,29.613 -12.56,44.472 -38.96,44.472 h -128.02 c -26.38,0 -39.54,-14.863 -39.54,-44.476 V 140.551 h -111.35"
         style="fill:#0b1a35;fill-opacity:1;fill-rule:nonzero;stroke:none"
         id="path16" />
      <path
         d="m 2756.65,140.551 v 321.301 c 0,43.242 14.97,80.046 43.51,110.339 28.51,30.336 64.23,45.461 107.28,45.461 h 128.34 c 42.97,0 78.74,-15.125 107.34,-45.461 28.54,-30.293 42.8,-67.101 42.8,-110.343 V 140.551 h -110.76 v 321.297 c 0,29.613 -13.16,44.476 -39.56,44.476 h -128.02 c -26.39,0 -39.55,-14.863 -39.55,-44.476 V 140.551 h -111.38"
         style="fill:#0b1a35;fill-opacity:1;fill-rule:nonzero;stroke:none"
         id="path18" />
      <path
         d="m 4323.45,287.781 c 0,-24.015 -8,-36 -24.14,-36 h -315.36 c -15.47,0 -23.26,11.957 -23.26,35.895 v 0.75 c 0,23.937 8.23,33.918 23.7,33.918 h 315.36 c 16.14,0 23.7,-10.008 23.7,-34.024 z m 97.4,66.121 c -6.03,13.457 -13.55,26.258 -23.65,37.914 -25.02,28.84 -57.23,41.899 -97.45,41.899 h -315.36 c -39.59,0 -72.32,-13.059 -97.47,-41.899 -25,-28.859 -37.58,-63.242 -37.58,-103.16 0,-39.922 12.58,-75.511 37.58,-104.371 25.15,-28.84 57.44,-43.269 97.03,-43.269 h 315.36 c 40.23,0 72.87,14.429 97.89,43.269 25,28.86 37.59,63.238 37.59,103.16 v 66.457 h -13.94"
         style="fill:#40c1e6;fill-opacity:1;fill-rule:nonzero;stroke:none"
         id="path20" />
      <path
         d="m 3983.95,251.781 h 295.11 c 29.62,0 44.4,-6.883 44.4,19.496 v 173.735 c 0,26.398 -12.55,61.269 -42.16,61.269 h -389.77 v 111.371 h 389.77 c 49.9,0 80.05,-14.265 110.34,-42.804 30.34,-28.602 43.15,-86.688 43.15,-129.657 V 271.145 c 0,-43.047 -15.13,-78.774 -45.46,-107.282 -30.29,-28.543 -78.2,-22.847 -121.44,-22.847 h -283.94 v 110.765"
         style="fill:#40c1e6;fill-opacity:1;fill-rule:nonzero;stroke:none"
         id="path22" />
      <path
         d="m 2369.61,140.746 h -111.34 v 150.422 l -362.75,-1.074 V 402.25 l 362.75,-0.379 v 66.438 c 0,24.015 -8,35.996 -24.13,35.996 h -315.37 c -15.47,0 -23.25,-11.953 -23.25,-35.891 V 140.746 h -111.36 v 327.895 c 0,39.922 12.59,74.304 37.58,103.16 25.15,28.844 57.45,43.273 97.03,43.273 h 315.37 c 40.22,0 72.87,-14.429 97.89,-43.273 25,-28.856 37.58,-63.238 37.58,-103.16 V 140.746"
         style="fill:#0b1a35;fill-opacity:1;fill-rule:nonzero;stroke:none"
         id="path24" />
      <path
         d="M 840.859,821.266 71.2461,629.242 C 44.8086,622.645 43.9766,590.574 70.0469,582.965 L 840.859,357.957 1611.67,582.965 c 26.07,7.609 25.24,39.68 -1.2,46.277 L 840.859,821.266"
         style="fill:#40c1e6;fill-opacity:1;fill-rule:nonzero;stroke:none"
         id="path26" />
      <path
         d="M 67.4414,519.336 V 264.723 l 64.5506,0.007 v 235.731 l -64.5506,18.875"
         style="fill:#40c1e6;fill-opacity:1;fill-rule:nonzero;stroke:none"
         id="path28" />
      <path
         d="M 199.426,225.805 99.7188,126.094 0.0117188,225.805 99.7188,325.512 199.426,225.805"
         style="fill:#40c1e6;fill-opacity:1;fill-rule:nonzero;stroke:none"
         id="path30" />
      <path
         d="m 353.766,762.672 58.613,291.318 c 2.039,10.12 14.539,13.87 21.812,6.55 L 648.172,836.121 353.766,762.672"
         style="fill:#40c1e6;fill-opacity:1;fill-rule:nonzero;stroke:none"
         id="path32" />
      <path
         d="m 1329.84,762.664 -58.62,291.316 c -2.03,10.12 -14.53,13.87 -21.81,6.55 l -213.98,-224.417 294.41,-73.449"
         style="fill:#40c1e6;fill-opacity:1;fill-rule:nonzero;stroke:none"
         id="path34" />
      <path
         d="M 840.859,293.402 352.82,435.895 V 140.551 C 494.234,51.6289 661.477,0 840.859,0 1020.24,0 1187.48,51.6289 1328.89,140.551 V 435.938 L 840.859,293.402"
         style="fill:#40c1e6;fill-opacity:1;fill-rule:nonzero;stroke:none"
         id="path36" />
    </g>
  </g>
</svg>
