<?xml version="1.0" encoding="UTF-8" standalone="no"?>
<!-- Created with Inkscape (http://www.inkscape.org/) -->

<svg
   version="1.1"
   id="svg2"
   width="587.45331"
   height="188.56"
   viewBox="0 0 587.45331 188.56"
   sodipodi:docname="AT_Logo-AmCat_CMYK_02.eps"
   xmlns:inkscape="http://www.inkscape.org/namespaces/inkscape"
   xmlns:sodipodi="http://sodipodi.sourceforge.net/DTD/sodipodi-0.dtd"
   xmlns="http://www.w3.org/2000/svg"
   xmlns:svg="http://www.w3.org/2000/svg">
  <defs
     id="defs6" />
  <sodipodi:namedview
     id="namedview4"
     pagecolor="#ffffff"
     bordercolor="#000000"
     borderopacity="0.25"
     inkscape:showpageshadow="2"
     inkscape:pageopacity="0.0"
     inkscape:pagecheckerboard="0"
     inkscape:deskcolor="#d1d1d1" />
  <g
     id="g8"
     inkscape:groupmode="layer"
     inkscape:label="ink_ext_XXXXXX"
     transform="matrix(1.3333333,0,0,-1.3333333,0,188.56)">
    <g
       id="g10"
       transform="scale(0.1)">
      <path
         d="M 4405.89,0 H 0 V 1414.18 H 4405.89 V 0"
         style="fill:#0b1a35;fill-opacity:1;fill-rule:nonzero;stroke:none"
         id="path12" />
      <path
         d="m 2566.01,471.254 h -367.07 c -42.98,0 -79.57,15.785 -109.68,44.156 -30.16,28.34 -45.19,63.852 -45.19,106.641 v 173.004 c 0,42.715 15.03,78.269 45.19,106.699 30.11,28.367 66.73,43.742 109.71,43.742 h 367.04 V 834.793 h -367.07 c -29.44,0 -44.21,-13.676 -44.21,-39.918 V 622.184 c 0,-26.223 14.77,-40.368 44.21,-40.368 h 367.07 V 471.254"
         style="fill:#40c1e6;fill-opacity:1;fill-rule:nonzero;stroke:none"
         id="path14" />
      <path
         d="m 3823.94,834.793 h -213.9 V 471.254 h -110.7 v 363.539 h -213.88 v 110.703 h 538.48 V 834.793"
         style="fill:#40c1e6;fill-opacity:1;fill-rule:nonzero;stroke:none"
         id="path16" />
      <path
         d="m 1232.64,471.254 v 319.375 c 0,42.98 14.85,79.57 43.22,109.68 28.34,30.152 63.85,45.187 106.63,45.187 h 127.58 c 42.71,0 78.27,-15.035 106.7,-45.187 28.36,-30.11 42.54,-66.704 42.54,-109.684 V 473.617 h -110.1 l -0.6,317.012 c 0,29.434 -12.48,44.207 -38.72,44.207 h -127.26 c -26.22,0 -39.31,-14.777 -39.31,-44.211 V 471.254 h -110.68"
         style="fill:#ffffff;fill-opacity:1;fill-rule:nonzero;stroke:none"
         id="path18" />
      <path
         d="m 1548.61,471.254 v 319.375 c 0,42.98 14.88,79.57 43.25,109.68 28.34,30.152 63.85,45.187 106.64,45.187 h 127.57 c 42.72,0 78.27,-15.035 106.7,-45.187 28.37,-30.11 42.55,-66.704 42.55,-109.684 V 471.254 h -110.11 v 319.371 c 0,29.434 -13.08,44.211 -39.32,44.211 h -127.26 c -26.22,0 -39.3,-14.777 -39.3,-44.211 V 471.254 h -110.72"
         style="fill:#ffffff;fill-opacity:1;fill-rule:nonzero;stroke:none"
         id="path20" />
      <path
         d="m 3106.03,617.598 c 0,-23.871 -7.95,-35.782 -23.99,-35.782 h -313.47 c -15.38,0 -23.12,11.887 -23.12,35.676 v 0.75 c 0,23.793 8.17,33.715 23.55,33.715 h 313.48 c 16.04,0 23.55,-9.949 23.55,-33.82 z m 96.83,65.726 c -6,13.379 -13.47,26.102 -23.51,37.688 -24.87,28.668 -56.89,41.648 -96.87,41.648 H 2769 c -39.35,0 -71.88,-12.98 -96.88,-41.648 -24.85,-28.688 -37.36,-62.864 -37.36,-102.543 0,-39.684 12.51,-75.059 37.36,-103.742 25,-28.672 57.1,-43.012 96.45,-43.012 h 313.47 c 39.99,0 72.44,14.34 97.31,43.012 24.84,28.683 37.36,62.859 37.36,102.539 v 66.058 h -13.85"
         style="fill:#40c1e6;fill-opacity:1;fill-rule:nonzero;stroke:none"
         id="path22" />
      <path
         d="m 2768.57,581.816 h 293.35 c 29.43,0 44.13,-6.843 44.13,19.379 v 172.696 c 0,26.238 -12.48,60.902 -41.91,60.902 H 2676.7 v 110.703 h 387.44 c 49.6,0 79.57,-14.18 109.68,-42.547 30.15,-28.429 42.89,-86.168 42.89,-128.883 V 601.063 c 0,-42.79 -15.04,-78.301 -45.19,-106.637 -30.11,-28.375 -77.73,-22.715 -120.72,-22.715 l -282.23,0.004 v 110.101"
         style="fill:#40c1e6;fill-opacity:1;fill-rule:nonzero;stroke:none"
         id="path24" />
      <path
         d="m 1163.89,471.445 h -110.67 v 149.52 l -360.587,-1.067 v 111.485 l 360.587,-0.375 v 66.039 c 0,23.871 -7.95,35.781 -23.99,35.781 H 715.75 c -15.379,0 -23.117,-11.883 -23.117,-35.676 V 471.445 H 581.945 v 325.934 c 0,39.68 12.512,73.855 37.356,102.543 24.996,28.668 57.101,43.012 96.449,43.012 h 313.48 c 39.98,0 72.43,-14.344 97.31,-43.012 24.84,-28.688 37.35,-62.863 37.35,-102.543 V 471.445"
         style="fill:#ffffff;fill-opacity:1;fill-rule:nonzero;stroke:none"
         id="path26" />
    </g>
  </g>
</svg>
